G04 EAGLE Gerber RS-274X export*
G75*
%MOMM*%
%FSLAX34Y34*%
%LPD*%
%IN*%
%IPPOS*%
%AMOC8*
5,1,8,0,0,1.08239X$1,22.5*%
G01*
%ADD10C,0.254000*%


D10*
X0Y0D02*
X643128Y0D01*
X643128Y389128D01*
X0Y389128D01*
X0Y0D01*
X101346Y66784D02*
X101274Y65224D01*
X101130Y63670D01*
X100914Y62124D01*
X100627Y60589D01*
X100270Y59070D01*
X99843Y57568D01*
X99347Y56088D01*
X98783Y54633D01*
X98152Y53205D01*
X97457Y51807D01*
X96697Y50444D01*
X95875Y49116D01*
X94993Y47829D01*
X94052Y46583D01*
X93055Y45382D01*
X92003Y44228D01*
X90900Y43125D01*
X89746Y42073D01*
X88545Y41076D01*
X87299Y40135D01*
X86012Y39253D01*
X84684Y38431D01*
X83321Y37672D01*
X81923Y36976D01*
X80495Y36345D01*
X79040Y35781D01*
X77560Y35285D01*
X76058Y34858D01*
X74539Y34501D01*
X73004Y34214D01*
X71458Y33998D01*
X69904Y33854D01*
X68345Y33782D01*
X66784Y33782D01*
X65224Y33854D01*
X63670Y33998D01*
X62124Y34214D01*
X60589Y34501D01*
X59070Y34858D01*
X57568Y35285D01*
X56088Y35781D01*
X54633Y36345D01*
X53205Y36976D01*
X51807Y37672D01*
X50444Y38431D01*
X49116Y39253D01*
X47829Y40135D01*
X46583Y41076D01*
X45382Y42073D01*
X44228Y43125D01*
X43125Y44228D01*
X42073Y45382D01*
X41076Y46583D01*
X40135Y47829D01*
X39253Y49116D01*
X38431Y50444D01*
X37672Y51807D01*
X36976Y53205D01*
X36345Y54633D01*
X35781Y56088D01*
X35285Y57568D01*
X34858Y59070D01*
X34501Y60589D01*
X34214Y62124D01*
X33998Y63670D01*
X33854Y65224D01*
X33782Y66784D01*
X33782Y68345D01*
X33854Y69904D01*
X33998Y71458D01*
X34214Y73004D01*
X34501Y74539D01*
X34858Y76058D01*
X35285Y77560D01*
X35781Y79040D01*
X36345Y80495D01*
X36976Y81923D01*
X37672Y83321D01*
X38431Y84684D01*
X39253Y86012D01*
X40135Y87299D01*
X41076Y88545D01*
X42073Y89746D01*
X43125Y90900D01*
X44228Y92003D01*
X45382Y93055D01*
X46583Y94052D01*
X47829Y94993D01*
X49116Y95875D01*
X50444Y96697D01*
X51807Y97457D01*
X53205Y98152D01*
X54633Y98783D01*
X56088Y99347D01*
X57568Y99843D01*
X59070Y100270D01*
X60589Y100627D01*
X62124Y100914D01*
X63670Y101130D01*
X65224Y101274D01*
X66784Y101346D01*
X68345Y101346D01*
X69904Y101274D01*
X71458Y101130D01*
X73004Y100914D01*
X74539Y100627D01*
X76058Y100270D01*
X77560Y99843D01*
X79040Y99347D01*
X80495Y98783D01*
X81923Y98152D01*
X83321Y97457D01*
X84684Y96697D01*
X86012Y95875D01*
X87299Y94993D01*
X88545Y94052D01*
X89746Y93055D01*
X90900Y92003D01*
X92003Y90900D01*
X93055Y89746D01*
X94052Y88545D01*
X94993Y87299D01*
X95875Y86012D01*
X96697Y84684D01*
X97457Y83321D01*
X98152Y81923D01*
X98783Y80495D01*
X99347Y79040D01*
X99843Y77560D01*
X100270Y76058D01*
X100627Y74539D01*
X100914Y73004D01*
X101130Y71458D01*
X101274Y69904D01*
X101346Y68345D01*
X101346Y66784D01*
X609346Y66784D02*
X609274Y65224D01*
X609130Y63670D01*
X608914Y62124D01*
X608627Y60589D01*
X608270Y59070D01*
X607843Y57568D01*
X607347Y56088D01*
X606783Y54633D01*
X606152Y53205D01*
X605457Y51807D01*
X604697Y50444D01*
X603875Y49116D01*
X602993Y47829D01*
X602052Y46583D01*
X601055Y45382D01*
X600003Y44228D01*
X598900Y43125D01*
X597746Y42073D01*
X596545Y41076D01*
X595299Y40135D01*
X594012Y39253D01*
X592684Y38431D01*
X591321Y37672D01*
X589923Y36976D01*
X588495Y36345D01*
X587040Y35781D01*
X585560Y35285D01*
X584058Y34858D01*
X582539Y34501D01*
X581004Y34214D01*
X579458Y33998D01*
X577904Y33854D01*
X576345Y33782D01*
X574784Y33782D01*
X573224Y33854D01*
X571670Y33998D01*
X570124Y34214D01*
X568589Y34501D01*
X567070Y34858D01*
X565568Y35285D01*
X564088Y35781D01*
X562633Y36345D01*
X561205Y36976D01*
X559807Y37672D01*
X558444Y38431D01*
X557116Y39253D01*
X555829Y40135D01*
X554583Y41076D01*
X553382Y42073D01*
X552228Y43125D01*
X551125Y44228D01*
X550073Y45382D01*
X549076Y46583D01*
X548135Y47829D01*
X547253Y49116D01*
X546431Y50444D01*
X545672Y51807D01*
X544976Y53205D01*
X544345Y54633D01*
X543781Y56088D01*
X543285Y57568D01*
X542858Y59070D01*
X542501Y60589D01*
X542214Y62124D01*
X541998Y63670D01*
X541854Y65224D01*
X541782Y66784D01*
X541782Y68345D01*
X541854Y69904D01*
X541998Y71458D01*
X542214Y73004D01*
X542501Y74539D01*
X542858Y76058D01*
X543285Y77560D01*
X543781Y79040D01*
X544345Y80495D01*
X544976Y81923D01*
X545672Y83321D01*
X546431Y84684D01*
X547253Y86012D01*
X548135Y87299D01*
X549076Y88545D01*
X550073Y89746D01*
X551125Y90900D01*
X552228Y92003D01*
X553382Y93055D01*
X554583Y94052D01*
X555829Y94993D01*
X557116Y95875D01*
X558444Y96697D01*
X559807Y97457D01*
X561205Y98152D01*
X562633Y98783D01*
X564088Y99347D01*
X565568Y99843D01*
X567070Y100270D01*
X568589Y100627D01*
X570124Y100914D01*
X571670Y101130D01*
X573224Y101274D01*
X574784Y101346D01*
X576345Y101346D01*
X577904Y101274D01*
X579458Y101130D01*
X581004Y100914D01*
X582539Y100627D01*
X584058Y100270D01*
X585560Y99843D01*
X587040Y99347D01*
X588495Y98783D01*
X589923Y98152D01*
X591321Y97457D01*
X592684Y96697D01*
X594012Y95875D01*
X595299Y94993D01*
X596545Y94052D01*
X597746Y93055D01*
X598900Y92003D01*
X600003Y90900D01*
X601055Y89746D01*
X602052Y88545D01*
X602993Y87299D01*
X603875Y86012D01*
X604697Y84684D01*
X605457Y83321D01*
X606152Y81923D01*
X606783Y80495D01*
X607347Y79040D01*
X607843Y77560D01*
X608270Y76058D01*
X608627Y74539D01*
X608914Y73004D01*
X609130Y71458D01*
X609274Y69904D01*
X609346Y68345D01*
X609346Y66784D01*
X101346Y320784D02*
X101274Y319224D01*
X101130Y317670D01*
X100914Y316124D01*
X100627Y314589D01*
X100270Y313070D01*
X99843Y311568D01*
X99347Y310088D01*
X98783Y308633D01*
X98152Y307205D01*
X97457Y305807D01*
X96697Y304444D01*
X95875Y303116D01*
X94993Y301829D01*
X94052Y300583D01*
X93055Y299382D01*
X92003Y298228D01*
X90900Y297125D01*
X89746Y296073D01*
X88545Y295076D01*
X87299Y294135D01*
X86012Y293253D01*
X84684Y292431D01*
X83321Y291672D01*
X81923Y290976D01*
X80495Y290345D01*
X79040Y289781D01*
X77560Y289285D01*
X76058Y288858D01*
X74539Y288501D01*
X73004Y288214D01*
X71458Y287998D01*
X69904Y287854D01*
X68345Y287782D01*
X66784Y287782D01*
X65224Y287854D01*
X63670Y287998D01*
X62124Y288214D01*
X60589Y288501D01*
X59070Y288858D01*
X57568Y289285D01*
X56088Y289781D01*
X54633Y290345D01*
X53205Y290976D01*
X51807Y291672D01*
X50444Y292431D01*
X49116Y293253D01*
X47829Y294135D01*
X46583Y295076D01*
X45382Y296073D01*
X44228Y297125D01*
X43125Y298228D01*
X42073Y299382D01*
X41076Y300583D01*
X40135Y301829D01*
X39253Y303116D01*
X38431Y304444D01*
X37672Y305807D01*
X36976Y307205D01*
X36345Y308633D01*
X35781Y310088D01*
X35285Y311568D01*
X34858Y313070D01*
X34501Y314589D01*
X34214Y316124D01*
X33998Y317670D01*
X33854Y319224D01*
X33782Y320784D01*
X33782Y322345D01*
X33854Y323904D01*
X33998Y325458D01*
X34214Y327004D01*
X34501Y328539D01*
X34858Y330058D01*
X35285Y331560D01*
X35781Y333040D01*
X36345Y334495D01*
X36976Y335923D01*
X37672Y337321D01*
X38431Y338684D01*
X39253Y340012D01*
X40135Y341299D01*
X41076Y342545D01*
X42073Y343746D01*
X43125Y344900D01*
X44228Y346003D01*
X45382Y347055D01*
X46583Y348052D01*
X47829Y348993D01*
X49116Y349875D01*
X50444Y350697D01*
X51807Y351457D01*
X53205Y352152D01*
X54633Y352783D01*
X56088Y353347D01*
X57568Y353843D01*
X59070Y354270D01*
X60589Y354627D01*
X62124Y354914D01*
X63670Y355130D01*
X65224Y355274D01*
X66784Y355346D01*
X68345Y355346D01*
X69904Y355274D01*
X71458Y355130D01*
X73004Y354914D01*
X74539Y354627D01*
X76058Y354270D01*
X77560Y353843D01*
X79040Y353347D01*
X80495Y352783D01*
X81923Y352152D01*
X83321Y351457D01*
X84684Y350697D01*
X86012Y349875D01*
X87299Y348993D01*
X88545Y348052D01*
X89746Y347055D01*
X90900Y346003D01*
X92003Y344900D01*
X93055Y343746D01*
X94052Y342545D01*
X94993Y341299D01*
X95875Y340012D01*
X96697Y338684D01*
X97457Y337321D01*
X98152Y335923D01*
X98783Y334495D01*
X99347Y333040D01*
X99843Y331560D01*
X100270Y330058D01*
X100627Y328539D01*
X100914Y327004D01*
X101130Y325458D01*
X101274Y323904D01*
X101346Y322345D01*
X101346Y320784D01*
X609346Y320784D02*
X609274Y319224D01*
X609130Y317670D01*
X608914Y316124D01*
X608627Y314589D01*
X608270Y313070D01*
X607843Y311568D01*
X607347Y310088D01*
X606783Y308633D01*
X606152Y307205D01*
X605457Y305807D01*
X604697Y304444D01*
X603875Y303116D01*
X602993Y301829D01*
X602052Y300583D01*
X601055Y299382D01*
X600003Y298228D01*
X598900Y297125D01*
X597746Y296073D01*
X596545Y295076D01*
X595299Y294135D01*
X594012Y293253D01*
X592684Y292431D01*
X591321Y291672D01*
X589923Y290976D01*
X588495Y290345D01*
X587040Y289781D01*
X585560Y289285D01*
X584058Y288858D01*
X582539Y288501D01*
X581004Y288214D01*
X579458Y287998D01*
X577904Y287854D01*
X576345Y287782D01*
X574784Y287782D01*
X573224Y287854D01*
X571670Y287998D01*
X570124Y288214D01*
X568589Y288501D01*
X567070Y288858D01*
X565568Y289285D01*
X564088Y289781D01*
X562633Y290345D01*
X561205Y290976D01*
X559807Y291672D01*
X558444Y292431D01*
X557116Y293253D01*
X555829Y294135D01*
X554583Y295076D01*
X553382Y296073D01*
X552228Y297125D01*
X551125Y298228D01*
X550073Y299382D01*
X549076Y300583D01*
X548135Y301829D01*
X547253Y303116D01*
X546431Y304444D01*
X545672Y305807D01*
X544976Y307205D01*
X544345Y308633D01*
X543781Y310088D01*
X543285Y311568D01*
X542858Y313070D01*
X542501Y314589D01*
X542214Y316124D01*
X541998Y317670D01*
X541854Y319224D01*
X541782Y320784D01*
X541782Y322345D01*
X541854Y323904D01*
X541998Y325458D01*
X542214Y327004D01*
X542501Y328539D01*
X542858Y330058D01*
X543285Y331560D01*
X543781Y333040D01*
X544345Y334495D01*
X544976Y335923D01*
X545672Y337321D01*
X546431Y338684D01*
X547253Y340012D01*
X548135Y341299D01*
X549076Y342545D01*
X550073Y343746D01*
X551125Y344900D01*
X552228Y346003D01*
X553382Y347055D01*
X554583Y348052D01*
X555829Y348993D01*
X557116Y349875D01*
X558444Y350697D01*
X559807Y351457D01*
X561205Y352152D01*
X562633Y352783D01*
X564088Y353347D01*
X565568Y353843D01*
X567070Y354270D01*
X568589Y354627D01*
X570124Y354914D01*
X571670Y355130D01*
X573224Y355274D01*
X574784Y355346D01*
X576345Y355346D01*
X577904Y355274D01*
X579458Y355130D01*
X581004Y354914D01*
X582539Y354627D01*
X584058Y354270D01*
X585560Y353843D01*
X587040Y353347D01*
X588495Y352783D01*
X589923Y352152D01*
X591321Y351457D01*
X592684Y350697D01*
X594012Y349875D01*
X595299Y348993D01*
X596545Y348052D01*
X597746Y347055D01*
X598900Y346003D01*
X600003Y344900D01*
X601055Y343746D01*
X602052Y342545D01*
X602993Y341299D01*
X603875Y340012D01*
X604697Y338684D01*
X605457Y337321D01*
X606152Y335923D01*
X606783Y334495D01*
X607347Y333040D01*
X607843Y331560D01*
X608270Y330058D01*
X608627Y328539D01*
X608914Y327004D01*
X609130Y325458D01*
X609274Y323904D01*
X609346Y322345D01*
X609346Y320784D01*
M02*
