G04 EAGLE Gerber RS-274X export*
G75*
%MOMM*%
%FSLAX34Y34*%
%LPD*%
%INSilkscreen Top*%
%IPPOS*%
%AMOC8*
5,1,8,0,0,1.08239X$1,22.5*%
G01*
%ADD10C,0.127000*%
%ADD11C,0.101600*%
%ADD12C,0.076200*%
%ADD13R,1.730000X0.740000*%
%ADD14C,0.200000*%


D10*
X317350Y282156D02*
X400350Y282156D01*
X400350Y322156D01*
X422350Y322156D01*
X422350Y282156D01*
X457350Y282156D01*
X457350Y182156D01*
X317350Y182156D01*
X317350Y282156D01*
D11*
X435783Y290565D02*
X435783Y299003D01*
X435783Y290565D02*
X435785Y290452D01*
X435791Y290339D01*
X435801Y290226D01*
X435815Y290113D01*
X435832Y290001D01*
X435854Y289890D01*
X435879Y289780D01*
X435909Y289670D01*
X435942Y289562D01*
X435979Y289455D01*
X436019Y289349D01*
X436064Y289245D01*
X436112Y289142D01*
X436163Y289041D01*
X436218Y288942D01*
X436276Y288845D01*
X436338Y288750D01*
X436403Y288657D01*
X436471Y288567D01*
X436542Y288479D01*
X436617Y288393D01*
X436694Y288310D01*
X436774Y288230D01*
X436857Y288153D01*
X436943Y288078D01*
X437031Y288007D01*
X437121Y287939D01*
X437214Y287874D01*
X437309Y287812D01*
X437406Y287754D01*
X437505Y287699D01*
X437606Y287648D01*
X437709Y287600D01*
X437813Y287555D01*
X437919Y287515D01*
X438026Y287478D01*
X438134Y287445D01*
X438244Y287415D01*
X438354Y287390D01*
X438465Y287368D01*
X438577Y287351D01*
X438690Y287337D01*
X438803Y287327D01*
X438916Y287321D01*
X439029Y287319D01*
X439142Y287321D01*
X439255Y287327D01*
X439368Y287337D01*
X439481Y287351D01*
X439593Y287368D01*
X439704Y287390D01*
X439814Y287415D01*
X439924Y287445D01*
X440032Y287478D01*
X440139Y287515D01*
X440245Y287555D01*
X440349Y287600D01*
X440452Y287648D01*
X440553Y287699D01*
X440652Y287754D01*
X440749Y287812D01*
X440844Y287874D01*
X440937Y287939D01*
X441027Y288007D01*
X441115Y288078D01*
X441201Y288153D01*
X441284Y288230D01*
X441364Y288310D01*
X441441Y288393D01*
X441516Y288479D01*
X441587Y288567D01*
X441655Y288657D01*
X441720Y288750D01*
X441782Y288845D01*
X441840Y288942D01*
X441895Y289041D01*
X441946Y289142D01*
X441994Y289245D01*
X442039Y289349D01*
X442079Y289455D01*
X442116Y289562D01*
X442149Y289670D01*
X442179Y289780D01*
X442204Y289890D01*
X442226Y290001D01*
X442243Y290113D01*
X442257Y290226D01*
X442267Y290339D01*
X442273Y290452D01*
X442275Y290565D01*
X442274Y290565D02*
X442274Y299003D01*
X451164Y299003D02*
X451271Y299001D01*
X451377Y298995D01*
X451483Y298985D01*
X451589Y298972D01*
X451695Y298954D01*
X451799Y298933D01*
X451903Y298908D01*
X452006Y298879D01*
X452107Y298847D01*
X452207Y298810D01*
X452306Y298770D01*
X452404Y298727D01*
X452500Y298680D01*
X452594Y298629D01*
X452686Y298575D01*
X452776Y298518D01*
X452864Y298458D01*
X452949Y298394D01*
X453032Y298327D01*
X453113Y298257D01*
X453191Y298185D01*
X453267Y298109D01*
X453339Y298031D01*
X453409Y297950D01*
X453476Y297867D01*
X453540Y297782D01*
X453600Y297694D01*
X453657Y297604D01*
X453711Y297512D01*
X453762Y297418D01*
X453809Y297322D01*
X453852Y297224D01*
X453892Y297125D01*
X453929Y297025D01*
X453961Y296924D01*
X453990Y296821D01*
X454015Y296717D01*
X454036Y296613D01*
X454054Y296507D01*
X454067Y296401D01*
X454077Y296295D01*
X454083Y296189D01*
X454085Y296082D01*
X451164Y299003D02*
X451043Y299001D01*
X450922Y298995D01*
X450802Y298985D01*
X450681Y298972D01*
X450562Y298954D01*
X450442Y298933D01*
X450324Y298908D01*
X450207Y298879D01*
X450090Y298846D01*
X449975Y298810D01*
X449861Y298769D01*
X449748Y298726D01*
X449636Y298678D01*
X449527Y298627D01*
X449419Y298572D01*
X449312Y298514D01*
X449208Y298453D01*
X449106Y298388D01*
X449006Y298320D01*
X448908Y298249D01*
X448812Y298175D01*
X448719Y298098D01*
X448629Y298017D01*
X448541Y297934D01*
X448456Y297848D01*
X448373Y297759D01*
X448294Y297668D01*
X448217Y297574D01*
X448144Y297478D01*
X448074Y297380D01*
X448007Y297279D01*
X447943Y297176D01*
X447883Y297071D01*
X447826Y296964D01*
X447772Y296856D01*
X447722Y296746D01*
X447676Y296634D01*
X447633Y296521D01*
X447594Y296406D01*
X453112Y293810D02*
X453191Y293887D01*
X453267Y293968D01*
X453340Y294051D01*
X453410Y294136D01*
X453477Y294224D01*
X453541Y294314D01*
X453601Y294406D01*
X453658Y294501D01*
X453712Y294597D01*
X453763Y294695D01*
X453810Y294795D01*
X453854Y294897D01*
X453894Y295000D01*
X453930Y295104D01*
X453962Y295210D01*
X453991Y295316D01*
X454016Y295424D01*
X454038Y295532D01*
X454055Y295642D01*
X454069Y295751D01*
X454078Y295861D01*
X454084Y295972D01*
X454086Y296082D01*
X453111Y293810D02*
X447594Y287319D01*
X454085Y287319D01*
X50673Y212074D02*
X50673Y209477D01*
X50671Y209378D01*
X50665Y209278D01*
X50656Y209179D01*
X50643Y209081D01*
X50626Y208983D01*
X50605Y208885D01*
X50580Y208789D01*
X50552Y208694D01*
X50520Y208600D01*
X50485Y208507D01*
X50446Y208415D01*
X50403Y208325D01*
X50358Y208237D01*
X50308Y208150D01*
X50256Y208066D01*
X50200Y207983D01*
X50142Y207903D01*
X50080Y207825D01*
X50015Y207750D01*
X49947Y207677D01*
X49877Y207607D01*
X49804Y207539D01*
X49729Y207474D01*
X49651Y207412D01*
X49571Y207354D01*
X49488Y207298D01*
X49404Y207246D01*
X49317Y207196D01*
X49229Y207151D01*
X49139Y207108D01*
X49047Y207069D01*
X48954Y207034D01*
X48860Y207002D01*
X48765Y206974D01*
X48669Y206949D01*
X48571Y206928D01*
X48473Y206911D01*
X48375Y206898D01*
X48276Y206889D01*
X48176Y206883D01*
X48077Y206881D01*
X41585Y206881D01*
X41486Y206883D01*
X41386Y206889D01*
X41287Y206898D01*
X41189Y206911D01*
X41091Y206929D01*
X40993Y206949D01*
X40897Y206974D01*
X40801Y207002D01*
X40707Y207034D01*
X40614Y207069D01*
X40523Y207108D01*
X40433Y207151D01*
X40344Y207196D01*
X40258Y207246D01*
X40173Y207298D01*
X40091Y207354D01*
X40011Y207413D01*
X39933Y207474D01*
X39857Y207539D01*
X39784Y207607D01*
X39714Y207677D01*
X39646Y207750D01*
X39581Y207826D01*
X39520Y207904D01*
X39461Y207984D01*
X39405Y208066D01*
X39353Y208151D01*
X39304Y208237D01*
X39258Y208326D01*
X39215Y208416D01*
X39176Y208507D01*
X39141Y208600D01*
X39109Y208694D01*
X39081Y208790D01*
X39056Y208886D01*
X39036Y208984D01*
X39018Y209082D01*
X39005Y209180D01*
X38996Y209279D01*
X38990Y209378D01*
X38988Y209478D01*
X38989Y209477D02*
X38989Y212074D01*
X41585Y216439D02*
X38989Y219685D01*
X50673Y219685D01*
X50673Y222930D02*
X50673Y216439D01*
X30857Y212433D02*
X30857Y209837D01*
X30855Y209738D01*
X30849Y209638D01*
X30840Y209539D01*
X30827Y209441D01*
X30810Y209343D01*
X30789Y209245D01*
X30764Y209149D01*
X30736Y209054D01*
X30704Y208960D01*
X30669Y208867D01*
X30630Y208775D01*
X30587Y208685D01*
X30542Y208597D01*
X30492Y208510D01*
X30440Y208426D01*
X30384Y208343D01*
X30326Y208263D01*
X30264Y208185D01*
X30199Y208110D01*
X30131Y208037D01*
X30061Y207967D01*
X29988Y207899D01*
X29913Y207834D01*
X29835Y207772D01*
X29755Y207714D01*
X29672Y207658D01*
X29588Y207606D01*
X29501Y207556D01*
X29413Y207511D01*
X29323Y207468D01*
X29231Y207429D01*
X29138Y207394D01*
X29044Y207362D01*
X28949Y207334D01*
X28853Y207309D01*
X28755Y207288D01*
X28657Y207271D01*
X28559Y207258D01*
X28460Y207249D01*
X28360Y207243D01*
X28261Y207241D01*
X28261Y207240D02*
X21769Y207240D01*
X21670Y207242D01*
X21570Y207248D01*
X21471Y207257D01*
X21373Y207270D01*
X21275Y207288D01*
X21177Y207308D01*
X21081Y207333D01*
X20985Y207361D01*
X20891Y207393D01*
X20798Y207428D01*
X20707Y207467D01*
X20617Y207510D01*
X20528Y207555D01*
X20442Y207605D01*
X20357Y207657D01*
X20275Y207713D01*
X20195Y207772D01*
X20117Y207833D01*
X20041Y207898D01*
X19968Y207966D01*
X19898Y208036D01*
X19830Y208109D01*
X19765Y208185D01*
X19704Y208263D01*
X19645Y208343D01*
X19589Y208425D01*
X19537Y208510D01*
X19488Y208596D01*
X19442Y208685D01*
X19399Y208775D01*
X19360Y208866D01*
X19325Y208959D01*
X19293Y209053D01*
X19265Y209149D01*
X19240Y209245D01*
X19220Y209343D01*
X19202Y209441D01*
X19189Y209539D01*
X19180Y209638D01*
X19174Y209737D01*
X19172Y209837D01*
X19173Y209837D02*
X19173Y212433D01*
X19173Y220369D02*
X19175Y220476D01*
X19181Y220582D01*
X19191Y220688D01*
X19204Y220794D01*
X19222Y220900D01*
X19243Y221004D01*
X19268Y221108D01*
X19297Y221211D01*
X19329Y221312D01*
X19366Y221412D01*
X19406Y221511D01*
X19449Y221609D01*
X19496Y221705D01*
X19547Y221799D01*
X19601Y221891D01*
X19658Y221981D01*
X19718Y222069D01*
X19782Y222154D01*
X19849Y222237D01*
X19919Y222318D01*
X19991Y222396D01*
X20067Y222472D01*
X20145Y222544D01*
X20226Y222614D01*
X20309Y222681D01*
X20394Y222745D01*
X20482Y222805D01*
X20572Y222862D01*
X20664Y222916D01*
X20758Y222967D01*
X20854Y223014D01*
X20952Y223057D01*
X21051Y223097D01*
X21151Y223134D01*
X21252Y223166D01*
X21355Y223195D01*
X21459Y223220D01*
X21563Y223241D01*
X21669Y223259D01*
X21775Y223272D01*
X21881Y223282D01*
X21987Y223288D01*
X22094Y223290D01*
X19173Y220369D02*
X19175Y220248D01*
X19181Y220127D01*
X19191Y220007D01*
X19204Y219886D01*
X19222Y219767D01*
X19243Y219647D01*
X19268Y219529D01*
X19297Y219412D01*
X19330Y219295D01*
X19366Y219180D01*
X19407Y219066D01*
X19450Y218953D01*
X19498Y218841D01*
X19549Y218732D01*
X19604Y218624D01*
X19662Y218517D01*
X19723Y218413D01*
X19788Y218311D01*
X19856Y218211D01*
X19927Y218113D01*
X20001Y218017D01*
X20078Y217924D01*
X20159Y217834D01*
X20242Y217746D01*
X20328Y217661D01*
X20417Y217578D01*
X20508Y217499D01*
X20602Y217422D01*
X20698Y217349D01*
X20796Y217279D01*
X20897Y217212D01*
X21000Y217148D01*
X21105Y217088D01*
X21212Y217030D01*
X21320Y216977D01*
X21430Y216927D01*
X21542Y216881D01*
X21655Y216838D01*
X21770Y216799D01*
X24366Y222315D02*
X24288Y222394D01*
X24208Y222470D01*
X24125Y222543D01*
X24039Y222613D01*
X23952Y222680D01*
X23861Y222744D01*
X23769Y222804D01*
X23675Y222862D01*
X23578Y222916D01*
X23480Y222966D01*
X23380Y223013D01*
X23279Y223057D01*
X23176Y223097D01*
X23071Y223133D01*
X22966Y223165D01*
X22859Y223194D01*
X22752Y223219D01*
X22643Y223241D01*
X22534Y223258D01*
X22425Y223272D01*
X22315Y223281D01*
X22204Y223287D01*
X22094Y223289D01*
X24366Y222316D02*
X30857Y216799D01*
X30857Y223290D01*
D12*
X580240Y190841D02*
X580242Y190930D01*
X580248Y191019D01*
X580258Y191108D01*
X580272Y191196D01*
X580289Y191283D01*
X580311Y191369D01*
X580337Y191455D01*
X580366Y191539D01*
X580399Y191622D01*
X580435Y191703D01*
X580476Y191783D01*
X580519Y191860D01*
X580566Y191936D01*
X580617Y192009D01*
X580670Y192080D01*
X580727Y192149D01*
X580787Y192215D01*
X580850Y192279D01*
X580915Y192339D01*
X580983Y192397D01*
X581054Y192451D01*
X581127Y192502D01*
X581202Y192550D01*
X581279Y192595D01*
X581358Y192636D01*
X581439Y192673D01*
X581521Y192707D01*
X581605Y192738D01*
X581690Y192764D01*
X581776Y192787D01*
X581863Y192805D01*
X581951Y192820D01*
X582040Y192831D01*
X582129Y192838D01*
X582218Y192841D01*
X582307Y192840D01*
X582396Y192835D01*
X582484Y192826D01*
X582573Y192813D01*
X582660Y192796D01*
X582747Y192776D01*
X582833Y192751D01*
X582917Y192723D01*
X583000Y192691D01*
X583082Y192655D01*
X583162Y192616D01*
X583240Y192573D01*
X583316Y192527D01*
X583390Y192477D01*
X583462Y192424D01*
X583531Y192368D01*
X583598Y192309D01*
X583662Y192247D01*
X583723Y192183D01*
X583782Y192115D01*
X583837Y192045D01*
X583889Y191973D01*
X583938Y191898D01*
X583983Y191822D01*
X584025Y191743D01*
X584063Y191663D01*
X584098Y191581D01*
X584129Y191497D01*
X584157Y191412D01*
X584180Y191326D01*
X584200Y191239D01*
X584216Y191152D01*
X584228Y191063D01*
X584236Y190975D01*
X584240Y190886D01*
X584240Y190796D01*
X584236Y190707D01*
X584228Y190619D01*
X584216Y190530D01*
X584200Y190443D01*
X584180Y190356D01*
X584157Y190270D01*
X584129Y190185D01*
X584098Y190101D01*
X584063Y190019D01*
X584025Y189939D01*
X583983Y189860D01*
X583938Y189784D01*
X583889Y189709D01*
X583837Y189637D01*
X583782Y189567D01*
X583723Y189499D01*
X583662Y189435D01*
X583598Y189373D01*
X583531Y189314D01*
X583462Y189258D01*
X583390Y189205D01*
X583316Y189155D01*
X583240Y189109D01*
X583162Y189066D01*
X583082Y189027D01*
X583000Y188991D01*
X582917Y188959D01*
X582833Y188931D01*
X582747Y188906D01*
X582660Y188886D01*
X582573Y188869D01*
X582484Y188856D01*
X582396Y188847D01*
X582307Y188842D01*
X582218Y188841D01*
X582129Y188844D01*
X582040Y188851D01*
X581951Y188862D01*
X581863Y188877D01*
X581776Y188895D01*
X581690Y188918D01*
X581605Y188944D01*
X581521Y188975D01*
X581439Y189009D01*
X581358Y189046D01*
X581279Y189087D01*
X581202Y189132D01*
X581127Y189180D01*
X581054Y189231D01*
X580983Y189285D01*
X580915Y189343D01*
X580850Y189403D01*
X580787Y189467D01*
X580727Y189533D01*
X580670Y189602D01*
X580617Y189673D01*
X580566Y189746D01*
X580519Y189822D01*
X580476Y189899D01*
X580435Y189979D01*
X580399Y190060D01*
X580366Y190143D01*
X580337Y190227D01*
X580311Y190313D01*
X580289Y190399D01*
X580272Y190486D01*
X580258Y190574D01*
X580248Y190663D01*
X580242Y190752D01*
X580240Y190841D01*
D10*
X571140Y181241D02*
X526140Y181241D01*
X526140Y246241D01*
X571140Y246241D01*
X571140Y181241D01*
D11*
X554228Y192405D02*
X542544Y192405D01*
X542544Y195651D01*
X542546Y195764D01*
X542552Y195877D01*
X542562Y195990D01*
X542576Y196103D01*
X542593Y196215D01*
X542615Y196326D01*
X542640Y196436D01*
X542670Y196546D01*
X542703Y196654D01*
X542740Y196761D01*
X542780Y196867D01*
X542825Y196971D01*
X542873Y197074D01*
X542924Y197175D01*
X542979Y197274D01*
X543037Y197371D01*
X543099Y197466D01*
X543164Y197559D01*
X543232Y197649D01*
X543303Y197737D01*
X543378Y197823D01*
X543455Y197906D01*
X543535Y197986D01*
X543618Y198063D01*
X543704Y198138D01*
X543792Y198209D01*
X543882Y198277D01*
X543975Y198342D01*
X544070Y198404D01*
X544167Y198462D01*
X544266Y198517D01*
X544367Y198568D01*
X544470Y198616D01*
X544574Y198661D01*
X544680Y198701D01*
X544787Y198738D01*
X544895Y198771D01*
X545005Y198801D01*
X545115Y198826D01*
X545226Y198848D01*
X545338Y198865D01*
X545451Y198879D01*
X545564Y198889D01*
X545677Y198895D01*
X545790Y198897D01*
X545903Y198895D01*
X546016Y198889D01*
X546129Y198879D01*
X546242Y198865D01*
X546354Y198848D01*
X546465Y198826D01*
X546575Y198801D01*
X546685Y198771D01*
X546793Y198738D01*
X546900Y198701D01*
X547006Y198661D01*
X547110Y198616D01*
X547213Y198568D01*
X547314Y198517D01*
X547413Y198462D01*
X547510Y198404D01*
X547605Y198342D01*
X547698Y198277D01*
X547788Y198209D01*
X547876Y198138D01*
X547962Y198063D01*
X548045Y197986D01*
X548125Y197906D01*
X548202Y197823D01*
X548277Y197737D01*
X548348Y197649D01*
X548416Y197559D01*
X548481Y197466D01*
X548543Y197371D01*
X548601Y197274D01*
X548656Y197175D01*
X548707Y197074D01*
X548755Y196971D01*
X548800Y196867D01*
X548840Y196761D01*
X548877Y196654D01*
X548910Y196546D01*
X548940Y196436D01*
X548965Y196326D01*
X548987Y196215D01*
X549004Y196103D01*
X549018Y195990D01*
X549028Y195877D01*
X549034Y195764D01*
X549036Y195651D01*
X549035Y195651D02*
X549035Y192405D01*
X549035Y196300D02*
X554228Y198896D01*
X554228Y204165D02*
X554228Y209358D01*
X554228Y204165D02*
X542544Y204165D01*
X542544Y209358D01*
X547737Y208060D02*
X547737Y204165D01*
X547737Y218592D02*
X547737Y220539D01*
X554228Y220539D01*
X554228Y216645D01*
X554226Y216546D01*
X554220Y216446D01*
X554211Y216347D01*
X554198Y216249D01*
X554181Y216151D01*
X554160Y216053D01*
X554135Y215957D01*
X554107Y215862D01*
X554075Y215768D01*
X554040Y215675D01*
X554001Y215583D01*
X553958Y215493D01*
X553913Y215405D01*
X553863Y215318D01*
X553811Y215234D01*
X553755Y215151D01*
X553697Y215071D01*
X553635Y214993D01*
X553570Y214918D01*
X553502Y214845D01*
X553432Y214775D01*
X553359Y214707D01*
X553284Y214642D01*
X553206Y214580D01*
X553126Y214522D01*
X553043Y214466D01*
X552959Y214414D01*
X552872Y214364D01*
X552784Y214319D01*
X552694Y214276D01*
X552602Y214237D01*
X552509Y214202D01*
X552415Y214170D01*
X552320Y214142D01*
X552224Y214117D01*
X552126Y214096D01*
X552028Y214079D01*
X551930Y214066D01*
X551831Y214057D01*
X551731Y214051D01*
X551632Y214049D01*
X551632Y214048D02*
X545140Y214048D01*
X545041Y214050D01*
X544941Y214056D01*
X544842Y214065D01*
X544744Y214078D01*
X544646Y214096D01*
X544548Y214116D01*
X544452Y214141D01*
X544356Y214169D01*
X544262Y214201D01*
X544169Y214236D01*
X544078Y214275D01*
X543988Y214318D01*
X543899Y214363D01*
X543813Y214413D01*
X543728Y214465D01*
X543646Y214521D01*
X543566Y214580D01*
X543488Y214641D01*
X543412Y214706D01*
X543339Y214774D01*
X543269Y214844D01*
X543201Y214917D01*
X543136Y214993D01*
X543075Y215071D01*
X543016Y215151D01*
X542960Y215233D01*
X542908Y215318D01*
X542859Y215404D01*
X542813Y215493D01*
X542770Y215583D01*
X542731Y215674D01*
X542696Y215767D01*
X542664Y215861D01*
X542636Y215957D01*
X542611Y216053D01*
X542591Y216151D01*
X542573Y216249D01*
X542560Y216347D01*
X542551Y216446D01*
X542545Y216545D01*
X542543Y216645D01*
X542544Y216645D02*
X542544Y220539D01*
X545140Y225859D02*
X542544Y229105D01*
X554228Y229105D01*
X554228Y232350D02*
X554228Y225859D01*
D10*
X488705Y164622D02*
X488705Y136622D01*
X505705Y136622D02*
X505705Y164622D01*
D13*
X497255Y142822D03*
D11*
X491363Y112101D02*
X491363Y105610D01*
X491363Y112101D02*
X503047Y105610D01*
X503047Y112101D01*
X493959Y116659D02*
X491363Y119904D01*
X503047Y119904D01*
X503047Y116659D02*
X503047Y123150D01*
X493141Y188432D02*
X493141Y191029D01*
X493141Y188432D02*
X493139Y188333D01*
X493133Y188233D01*
X493124Y188134D01*
X493111Y188036D01*
X493094Y187938D01*
X493073Y187840D01*
X493048Y187744D01*
X493020Y187649D01*
X492988Y187555D01*
X492953Y187462D01*
X492914Y187370D01*
X492871Y187280D01*
X492826Y187192D01*
X492776Y187105D01*
X492724Y187021D01*
X492668Y186938D01*
X492610Y186858D01*
X492548Y186780D01*
X492483Y186705D01*
X492415Y186632D01*
X492345Y186562D01*
X492272Y186494D01*
X492197Y186429D01*
X492119Y186367D01*
X492039Y186309D01*
X491956Y186253D01*
X491872Y186201D01*
X491785Y186151D01*
X491697Y186106D01*
X491607Y186063D01*
X491515Y186024D01*
X491422Y185989D01*
X491328Y185957D01*
X491233Y185929D01*
X491137Y185904D01*
X491039Y185883D01*
X490941Y185866D01*
X490843Y185853D01*
X490744Y185844D01*
X490644Y185838D01*
X490545Y185836D01*
X484053Y185836D01*
X484053Y185835D02*
X483954Y185837D01*
X483854Y185843D01*
X483755Y185852D01*
X483657Y185865D01*
X483559Y185883D01*
X483461Y185903D01*
X483365Y185928D01*
X483269Y185956D01*
X483175Y185988D01*
X483082Y186023D01*
X482991Y186062D01*
X482901Y186105D01*
X482812Y186150D01*
X482726Y186200D01*
X482641Y186252D01*
X482559Y186308D01*
X482479Y186367D01*
X482401Y186428D01*
X482325Y186493D01*
X482252Y186561D01*
X482182Y186631D01*
X482114Y186704D01*
X482049Y186780D01*
X481988Y186858D01*
X481929Y186938D01*
X481873Y187020D01*
X481821Y187105D01*
X481772Y187191D01*
X481726Y187280D01*
X481683Y187370D01*
X481644Y187461D01*
X481609Y187554D01*
X481577Y187648D01*
X481549Y187744D01*
X481524Y187840D01*
X481504Y187938D01*
X481486Y188036D01*
X481473Y188134D01*
X481464Y188233D01*
X481458Y188332D01*
X481456Y188432D01*
X481457Y188432D02*
X481457Y191029D01*
X481457Y197990D02*
X490545Y195394D01*
X490545Y201885D01*
X487948Y199938D02*
X493141Y199938D01*
X526161Y126560D02*
X526161Y123963D01*
X526159Y123864D01*
X526153Y123764D01*
X526144Y123665D01*
X526131Y123567D01*
X526114Y123469D01*
X526093Y123371D01*
X526068Y123275D01*
X526040Y123180D01*
X526008Y123086D01*
X525973Y122993D01*
X525934Y122901D01*
X525891Y122811D01*
X525846Y122723D01*
X525796Y122636D01*
X525744Y122552D01*
X525688Y122469D01*
X525630Y122389D01*
X525568Y122311D01*
X525503Y122236D01*
X525435Y122163D01*
X525365Y122093D01*
X525292Y122025D01*
X525217Y121960D01*
X525139Y121898D01*
X525059Y121840D01*
X524976Y121784D01*
X524892Y121732D01*
X524805Y121682D01*
X524717Y121637D01*
X524627Y121594D01*
X524535Y121555D01*
X524442Y121520D01*
X524348Y121488D01*
X524253Y121460D01*
X524157Y121435D01*
X524059Y121414D01*
X523961Y121397D01*
X523863Y121384D01*
X523764Y121375D01*
X523664Y121369D01*
X523565Y121367D01*
X517073Y121367D01*
X517073Y121366D02*
X516974Y121368D01*
X516874Y121374D01*
X516775Y121383D01*
X516677Y121396D01*
X516579Y121414D01*
X516481Y121434D01*
X516385Y121459D01*
X516289Y121487D01*
X516195Y121519D01*
X516102Y121554D01*
X516011Y121593D01*
X515921Y121636D01*
X515832Y121681D01*
X515746Y121731D01*
X515661Y121783D01*
X515579Y121839D01*
X515499Y121898D01*
X515421Y121959D01*
X515345Y122024D01*
X515272Y122092D01*
X515202Y122162D01*
X515134Y122235D01*
X515069Y122311D01*
X515008Y122389D01*
X514949Y122469D01*
X514893Y122551D01*
X514841Y122636D01*
X514792Y122722D01*
X514746Y122811D01*
X514703Y122901D01*
X514664Y122992D01*
X514629Y123085D01*
X514597Y123179D01*
X514569Y123275D01*
X514544Y123371D01*
X514524Y123469D01*
X514506Y123567D01*
X514493Y123665D01*
X514484Y123764D01*
X514478Y123863D01*
X514476Y123963D01*
X514477Y123963D02*
X514477Y126560D01*
X526161Y130925D02*
X526161Y134820D01*
X526159Y134919D01*
X526153Y135019D01*
X526144Y135118D01*
X526131Y135216D01*
X526114Y135314D01*
X526093Y135412D01*
X526068Y135508D01*
X526040Y135603D01*
X526008Y135697D01*
X525973Y135790D01*
X525934Y135882D01*
X525891Y135972D01*
X525846Y136060D01*
X525796Y136147D01*
X525744Y136231D01*
X525688Y136314D01*
X525630Y136394D01*
X525568Y136472D01*
X525503Y136547D01*
X525435Y136620D01*
X525365Y136690D01*
X525292Y136758D01*
X525217Y136823D01*
X525139Y136885D01*
X525059Y136943D01*
X524976Y136999D01*
X524892Y137051D01*
X524805Y137101D01*
X524717Y137146D01*
X524627Y137189D01*
X524535Y137228D01*
X524442Y137263D01*
X524348Y137295D01*
X524253Y137323D01*
X524157Y137348D01*
X524059Y137369D01*
X523961Y137386D01*
X523863Y137399D01*
X523764Y137408D01*
X523664Y137414D01*
X523565Y137416D01*
X522266Y137416D01*
X522167Y137414D01*
X522067Y137408D01*
X521968Y137399D01*
X521870Y137386D01*
X521772Y137369D01*
X521674Y137348D01*
X521578Y137323D01*
X521483Y137295D01*
X521389Y137263D01*
X521296Y137228D01*
X521204Y137189D01*
X521114Y137146D01*
X521026Y137101D01*
X520939Y137051D01*
X520855Y136999D01*
X520772Y136943D01*
X520692Y136885D01*
X520614Y136823D01*
X520539Y136758D01*
X520466Y136690D01*
X520396Y136620D01*
X520328Y136547D01*
X520263Y136472D01*
X520201Y136394D01*
X520143Y136314D01*
X520087Y136231D01*
X520035Y136147D01*
X519985Y136060D01*
X519940Y135972D01*
X519897Y135882D01*
X519858Y135790D01*
X519823Y135697D01*
X519791Y135603D01*
X519763Y135508D01*
X519738Y135412D01*
X519717Y135314D01*
X519700Y135216D01*
X519687Y135118D01*
X519678Y135019D01*
X519672Y134919D01*
X519670Y134820D01*
X519670Y130925D01*
X514477Y130925D01*
X514477Y137416D01*
X125476Y211509D02*
X125476Y214106D01*
X125476Y211509D02*
X125474Y211410D01*
X125468Y211310D01*
X125459Y211211D01*
X125446Y211113D01*
X125429Y211015D01*
X125408Y210917D01*
X125383Y210821D01*
X125355Y210726D01*
X125323Y210632D01*
X125288Y210539D01*
X125249Y210447D01*
X125206Y210357D01*
X125161Y210269D01*
X125111Y210182D01*
X125059Y210098D01*
X125003Y210015D01*
X124945Y209935D01*
X124883Y209857D01*
X124818Y209782D01*
X124750Y209709D01*
X124680Y209639D01*
X124607Y209571D01*
X124532Y209506D01*
X124454Y209444D01*
X124374Y209386D01*
X124291Y209330D01*
X124207Y209278D01*
X124120Y209228D01*
X124032Y209183D01*
X123942Y209140D01*
X123850Y209101D01*
X123757Y209066D01*
X123663Y209034D01*
X123568Y209006D01*
X123472Y208981D01*
X123374Y208960D01*
X123276Y208943D01*
X123178Y208930D01*
X123079Y208921D01*
X122979Y208915D01*
X122880Y208913D01*
X116388Y208913D01*
X116289Y208915D01*
X116189Y208921D01*
X116090Y208930D01*
X115992Y208943D01*
X115894Y208961D01*
X115796Y208981D01*
X115700Y209006D01*
X115604Y209034D01*
X115510Y209066D01*
X115417Y209101D01*
X115326Y209140D01*
X115236Y209183D01*
X115147Y209228D01*
X115061Y209278D01*
X114976Y209330D01*
X114894Y209386D01*
X114814Y209445D01*
X114736Y209506D01*
X114660Y209571D01*
X114587Y209639D01*
X114517Y209709D01*
X114449Y209782D01*
X114384Y209858D01*
X114323Y209936D01*
X114264Y210016D01*
X114208Y210098D01*
X114156Y210183D01*
X114107Y210269D01*
X114061Y210358D01*
X114018Y210448D01*
X113979Y210539D01*
X113944Y210632D01*
X113912Y210726D01*
X113884Y210822D01*
X113859Y210918D01*
X113839Y211016D01*
X113821Y211114D01*
X113808Y211212D01*
X113799Y211311D01*
X113793Y211410D01*
X113791Y211510D01*
X113792Y211509D02*
X113792Y214106D01*
X125476Y218471D02*
X125476Y221717D01*
X125474Y221830D01*
X125468Y221943D01*
X125458Y222056D01*
X125444Y222169D01*
X125427Y222281D01*
X125405Y222392D01*
X125380Y222502D01*
X125350Y222612D01*
X125317Y222720D01*
X125280Y222827D01*
X125240Y222933D01*
X125195Y223037D01*
X125147Y223140D01*
X125096Y223241D01*
X125041Y223340D01*
X124983Y223437D01*
X124921Y223532D01*
X124856Y223625D01*
X124788Y223715D01*
X124717Y223803D01*
X124642Y223889D01*
X124565Y223972D01*
X124485Y224052D01*
X124402Y224129D01*
X124316Y224204D01*
X124228Y224275D01*
X124138Y224343D01*
X124045Y224408D01*
X123950Y224470D01*
X123853Y224528D01*
X123754Y224583D01*
X123653Y224634D01*
X123550Y224682D01*
X123446Y224727D01*
X123340Y224767D01*
X123233Y224804D01*
X123125Y224837D01*
X123015Y224867D01*
X122905Y224892D01*
X122794Y224914D01*
X122682Y224931D01*
X122569Y224945D01*
X122456Y224955D01*
X122343Y224961D01*
X122230Y224963D01*
X122117Y224961D01*
X122004Y224955D01*
X121891Y224945D01*
X121778Y224931D01*
X121666Y224914D01*
X121555Y224892D01*
X121445Y224867D01*
X121335Y224837D01*
X121227Y224804D01*
X121120Y224767D01*
X121014Y224727D01*
X120910Y224682D01*
X120807Y224634D01*
X120706Y224583D01*
X120607Y224528D01*
X120510Y224470D01*
X120415Y224408D01*
X120322Y224343D01*
X120232Y224275D01*
X120144Y224204D01*
X120058Y224129D01*
X119975Y224052D01*
X119895Y223972D01*
X119818Y223889D01*
X119743Y223803D01*
X119672Y223715D01*
X119604Y223625D01*
X119539Y223532D01*
X119477Y223437D01*
X119419Y223340D01*
X119364Y223241D01*
X119313Y223140D01*
X119265Y223037D01*
X119220Y222933D01*
X119180Y222827D01*
X119143Y222720D01*
X119110Y222612D01*
X119080Y222502D01*
X119055Y222392D01*
X119033Y222281D01*
X119016Y222169D01*
X119002Y222056D01*
X118992Y221943D01*
X118986Y221830D01*
X118984Y221717D01*
X113792Y222366D02*
X113792Y218471D01*
X113792Y222366D02*
X113794Y222467D01*
X113800Y222567D01*
X113810Y222667D01*
X113823Y222767D01*
X113841Y222866D01*
X113862Y222965D01*
X113887Y223062D01*
X113916Y223159D01*
X113949Y223254D01*
X113985Y223348D01*
X114025Y223440D01*
X114068Y223531D01*
X114115Y223620D01*
X114165Y223707D01*
X114219Y223793D01*
X114276Y223876D01*
X114336Y223956D01*
X114399Y224035D01*
X114466Y224111D01*
X114535Y224184D01*
X114607Y224254D01*
X114681Y224322D01*
X114758Y224387D01*
X114838Y224448D01*
X114920Y224507D01*
X115004Y224562D01*
X115090Y224614D01*
X115178Y224663D01*
X115268Y224708D01*
X115360Y224750D01*
X115453Y224788D01*
X115548Y224822D01*
X115643Y224853D01*
X115740Y224880D01*
X115838Y224903D01*
X115937Y224923D01*
X116037Y224938D01*
X116137Y224950D01*
X116237Y224958D01*
X116338Y224962D01*
X116438Y224962D01*
X116539Y224958D01*
X116639Y224950D01*
X116739Y224938D01*
X116839Y224923D01*
X116938Y224903D01*
X117036Y224880D01*
X117133Y224853D01*
X117228Y224822D01*
X117323Y224788D01*
X117416Y224750D01*
X117508Y224708D01*
X117598Y224663D01*
X117686Y224614D01*
X117772Y224562D01*
X117856Y224507D01*
X117938Y224448D01*
X118018Y224387D01*
X118095Y224322D01*
X118169Y224254D01*
X118241Y224184D01*
X118310Y224111D01*
X118377Y224035D01*
X118440Y223956D01*
X118500Y223876D01*
X118557Y223793D01*
X118611Y223707D01*
X118661Y223620D01*
X118708Y223531D01*
X118751Y223440D01*
X118791Y223348D01*
X118827Y223254D01*
X118860Y223159D01*
X118889Y223062D01*
X118914Y222965D01*
X118935Y222866D01*
X118953Y222767D01*
X118966Y222667D01*
X118976Y222567D01*
X118982Y222467D01*
X118984Y222366D01*
X118985Y222366D02*
X118985Y219769D01*
D10*
X219722Y337633D02*
X219722Y385433D01*
X219722Y337633D02*
X219722Y321933D01*
X145022Y321933D01*
X145022Y337633D01*
X145022Y385433D01*
X172772Y385433D01*
X219722Y385433D01*
X172772Y385433D02*
X172772Y382133D01*
X166372Y382133D01*
X166372Y385333D01*
X145022Y337633D02*
X219722Y337633D01*
D11*
X170883Y324041D02*
X168287Y324041D01*
X168188Y324043D01*
X168088Y324049D01*
X167989Y324058D01*
X167891Y324071D01*
X167793Y324088D01*
X167695Y324109D01*
X167599Y324134D01*
X167504Y324162D01*
X167410Y324194D01*
X167317Y324229D01*
X167225Y324268D01*
X167135Y324311D01*
X167047Y324356D01*
X166960Y324406D01*
X166876Y324458D01*
X166793Y324514D01*
X166713Y324572D01*
X166635Y324634D01*
X166560Y324699D01*
X166487Y324767D01*
X166417Y324837D01*
X166349Y324910D01*
X166284Y324985D01*
X166222Y325063D01*
X166164Y325143D01*
X166108Y325226D01*
X166056Y325310D01*
X166006Y325397D01*
X165961Y325485D01*
X165918Y325575D01*
X165879Y325667D01*
X165844Y325760D01*
X165812Y325854D01*
X165784Y325949D01*
X165759Y326045D01*
X165738Y326143D01*
X165721Y326241D01*
X165708Y326339D01*
X165699Y326438D01*
X165693Y326538D01*
X165691Y326637D01*
X165690Y326637D02*
X165690Y333129D01*
X165691Y333129D02*
X165693Y333228D01*
X165699Y333328D01*
X165708Y333427D01*
X165721Y333525D01*
X165738Y333623D01*
X165759Y333721D01*
X165784Y333817D01*
X165812Y333912D01*
X165844Y334006D01*
X165879Y334099D01*
X165918Y334191D01*
X165961Y334281D01*
X166006Y334369D01*
X166056Y334456D01*
X166108Y334540D01*
X166164Y334623D01*
X166222Y334703D01*
X166284Y334781D01*
X166349Y334856D01*
X166417Y334929D01*
X166487Y334999D01*
X166560Y335067D01*
X166635Y335132D01*
X166713Y335194D01*
X166793Y335252D01*
X166876Y335308D01*
X166960Y335360D01*
X167047Y335410D01*
X167135Y335455D01*
X167225Y335498D01*
X167317Y335537D01*
X167409Y335572D01*
X167504Y335604D01*
X167599Y335632D01*
X167695Y335657D01*
X167793Y335678D01*
X167891Y335695D01*
X167989Y335708D01*
X168088Y335717D01*
X168188Y335723D01*
X168287Y335725D01*
X170883Y335725D01*
X175652Y335725D02*
X175652Y324041D01*
X180845Y324041D01*
X186114Y324041D02*
X186114Y335725D01*
X184816Y324041D02*
X187412Y324041D01*
X187412Y335725D02*
X184816Y335725D01*
X192563Y335725D02*
X192563Y324041D01*
X192563Y335725D02*
X195808Y335725D01*
X195921Y335723D01*
X196034Y335717D01*
X196147Y335707D01*
X196260Y335693D01*
X196372Y335676D01*
X196483Y335654D01*
X196593Y335629D01*
X196703Y335599D01*
X196811Y335566D01*
X196918Y335529D01*
X197024Y335489D01*
X197128Y335444D01*
X197231Y335396D01*
X197332Y335345D01*
X197431Y335290D01*
X197528Y335232D01*
X197623Y335170D01*
X197716Y335105D01*
X197806Y335037D01*
X197894Y334966D01*
X197980Y334891D01*
X198063Y334814D01*
X198143Y334734D01*
X198220Y334651D01*
X198295Y334565D01*
X198366Y334477D01*
X198434Y334387D01*
X198499Y334294D01*
X198561Y334199D01*
X198619Y334102D01*
X198674Y334003D01*
X198725Y333902D01*
X198773Y333799D01*
X198818Y333695D01*
X198858Y333589D01*
X198895Y333482D01*
X198928Y333374D01*
X198958Y333264D01*
X198983Y333154D01*
X199005Y333043D01*
X199022Y332931D01*
X199036Y332818D01*
X199046Y332705D01*
X199052Y332592D01*
X199054Y332479D01*
X199052Y332366D01*
X199046Y332253D01*
X199036Y332140D01*
X199022Y332027D01*
X199005Y331915D01*
X198983Y331804D01*
X198958Y331694D01*
X198928Y331584D01*
X198895Y331476D01*
X198858Y331369D01*
X198818Y331263D01*
X198773Y331159D01*
X198725Y331056D01*
X198674Y330955D01*
X198619Y330856D01*
X198561Y330759D01*
X198499Y330664D01*
X198434Y330571D01*
X198366Y330481D01*
X198295Y330393D01*
X198220Y330307D01*
X198143Y330224D01*
X198063Y330144D01*
X197980Y330067D01*
X197894Y329992D01*
X197806Y329921D01*
X197716Y329853D01*
X197623Y329788D01*
X197528Y329726D01*
X197431Y329668D01*
X197332Y329613D01*
X197231Y329562D01*
X197128Y329514D01*
X197024Y329469D01*
X196918Y329429D01*
X196811Y329392D01*
X196703Y329359D01*
X196593Y329329D01*
X196483Y329304D01*
X196372Y329282D01*
X196260Y329265D01*
X196147Y329251D01*
X196034Y329241D01*
X195921Y329235D01*
X195808Y329233D01*
X195808Y329234D02*
X192563Y329234D01*
X180137Y319625D02*
X180137Y310537D01*
X180135Y310438D01*
X180129Y310338D01*
X180120Y310239D01*
X180107Y310141D01*
X180090Y310043D01*
X180069Y309945D01*
X180044Y309849D01*
X180016Y309754D01*
X179984Y309660D01*
X179949Y309567D01*
X179910Y309475D01*
X179867Y309385D01*
X179822Y309297D01*
X179772Y309210D01*
X179720Y309126D01*
X179664Y309043D01*
X179606Y308963D01*
X179544Y308885D01*
X179479Y308810D01*
X179411Y308737D01*
X179341Y308667D01*
X179268Y308599D01*
X179193Y308534D01*
X179115Y308472D01*
X179035Y308414D01*
X178952Y308358D01*
X178868Y308306D01*
X178781Y308256D01*
X178693Y308211D01*
X178603Y308168D01*
X178511Y308129D01*
X178418Y308094D01*
X178324Y308062D01*
X178229Y308034D01*
X178133Y308009D01*
X178035Y307988D01*
X177937Y307971D01*
X177839Y307958D01*
X177740Y307949D01*
X177640Y307943D01*
X177541Y307941D01*
X176242Y307941D01*
X185410Y317029D02*
X188656Y319625D01*
X188656Y307941D01*
X185410Y307941D02*
X191902Y307941D01*
D10*
X299986Y337633D02*
X299986Y385433D01*
X299986Y337633D02*
X299986Y321933D01*
X225286Y321933D01*
X225286Y337633D01*
X225286Y385433D01*
X253036Y385433D01*
X299986Y385433D01*
X253036Y385433D02*
X253036Y382133D01*
X246636Y382133D01*
X246636Y385333D01*
X225286Y337633D02*
X299986Y337633D01*
D11*
X251147Y324041D02*
X248551Y324041D01*
X248452Y324043D01*
X248352Y324049D01*
X248253Y324058D01*
X248155Y324071D01*
X248057Y324088D01*
X247959Y324109D01*
X247863Y324134D01*
X247768Y324162D01*
X247674Y324194D01*
X247581Y324229D01*
X247489Y324268D01*
X247399Y324311D01*
X247311Y324356D01*
X247224Y324406D01*
X247140Y324458D01*
X247057Y324514D01*
X246977Y324572D01*
X246899Y324634D01*
X246824Y324699D01*
X246751Y324767D01*
X246681Y324837D01*
X246613Y324910D01*
X246548Y324985D01*
X246486Y325063D01*
X246428Y325143D01*
X246372Y325226D01*
X246320Y325310D01*
X246270Y325397D01*
X246225Y325485D01*
X246182Y325575D01*
X246143Y325667D01*
X246108Y325760D01*
X246076Y325854D01*
X246048Y325949D01*
X246023Y326045D01*
X246002Y326143D01*
X245985Y326241D01*
X245972Y326339D01*
X245963Y326438D01*
X245957Y326538D01*
X245955Y326637D01*
X245954Y326637D02*
X245954Y333129D01*
X245955Y333129D02*
X245957Y333228D01*
X245963Y333328D01*
X245972Y333427D01*
X245985Y333525D01*
X246002Y333623D01*
X246023Y333721D01*
X246048Y333817D01*
X246076Y333912D01*
X246108Y334006D01*
X246143Y334099D01*
X246182Y334191D01*
X246225Y334281D01*
X246270Y334369D01*
X246320Y334456D01*
X246372Y334540D01*
X246428Y334623D01*
X246486Y334703D01*
X246548Y334781D01*
X246613Y334856D01*
X246681Y334929D01*
X246751Y334999D01*
X246824Y335067D01*
X246899Y335132D01*
X246977Y335194D01*
X247057Y335252D01*
X247140Y335308D01*
X247224Y335360D01*
X247311Y335410D01*
X247399Y335455D01*
X247489Y335498D01*
X247581Y335537D01*
X247673Y335572D01*
X247768Y335604D01*
X247863Y335632D01*
X247959Y335657D01*
X248057Y335678D01*
X248155Y335695D01*
X248253Y335708D01*
X248352Y335717D01*
X248452Y335723D01*
X248551Y335725D01*
X251147Y335725D01*
X255916Y335725D02*
X255916Y324041D01*
X261109Y324041D01*
X266378Y324041D02*
X266378Y335725D01*
X265080Y324041D02*
X267676Y324041D01*
X267676Y335725D02*
X265080Y335725D01*
X272827Y335725D02*
X272827Y324041D01*
X272827Y335725D02*
X276072Y335725D01*
X276185Y335723D01*
X276298Y335717D01*
X276411Y335707D01*
X276524Y335693D01*
X276636Y335676D01*
X276747Y335654D01*
X276857Y335629D01*
X276967Y335599D01*
X277075Y335566D01*
X277182Y335529D01*
X277288Y335489D01*
X277392Y335444D01*
X277495Y335396D01*
X277596Y335345D01*
X277695Y335290D01*
X277792Y335232D01*
X277887Y335170D01*
X277980Y335105D01*
X278070Y335037D01*
X278158Y334966D01*
X278244Y334891D01*
X278327Y334814D01*
X278407Y334734D01*
X278484Y334651D01*
X278559Y334565D01*
X278630Y334477D01*
X278698Y334387D01*
X278763Y334294D01*
X278825Y334199D01*
X278883Y334102D01*
X278938Y334003D01*
X278989Y333902D01*
X279037Y333799D01*
X279082Y333695D01*
X279122Y333589D01*
X279159Y333482D01*
X279192Y333374D01*
X279222Y333264D01*
X279247Y333154D01*
X279269Y333043D01*
X279286Y332931D01*
X279300Y332818D01*
X279310Y332705D01*
X279316Y332592D01*
X279318Y332479D01*
X279316Y332366D01*
X279310Y332253D01*
X279300Y332140D01*
X279286Y332027D01*
X279269Y331915D01*
X279247Y331804D01*
X279222Y331694D01*
X279192Y331584D01*
X279159Y331476D01*
X279122Y331369D01*
X279082Y331263D01*
X279037Y331159D01*
X278989Y331056D01*
X278938Y330955D01*
X278883Y330856D01*
X278825Y330759D01*
X278763Y330664D01*
X278698Y330571D01*
X278630Y330481D01*
X278559Y330393D01*
X278484Y330307D01*
X278407Y330224D01*
X278327Y330144D01*
X278244Y330067D01*
X278158Y329992D01*
X278070Y329921D01*
X277980Y329853D01*
X277887Y329788D01*
X277792Y329726D01*
X277695Y329668D01*
X277596Y329613D01*
X277495Y329562D01*
X277392Y329514D01*
X277288Y329469D01*
X277182Y329429D01*
X277075Y329392D01*
X276967Y329359D01*
X276857Y329329D01*
X276747Y329304D01*
X276636Y329282D01*
X276524Y329265D01*
X276411Y329251D01*
X276298Y329241D01*
X276185Y329235D01*
X276072Y329233D01*
X276072Y329234D02*
X272827Y329234D01*
X260401Y319625D02*
X260401Y310537D01*
X260399Y310438D01*
X260393Y310338D01*
X260384Y310239D01*
X260371Y310141D01*
X260354Y310043D01*
X260333Y309945D01*
X260308Y309849D01*
X260280Y309754D01*
X260248Y309660D01*
X260213Y309567D01*
X260174Y309475D01*
X260131Y309385D01*
X260086Y309297D01*
X260036Y309210D01*
X259984Y309126D01*
X259928Y309043D01*
X259870Y308963D01*
X259808Y308885D01*
X259743Y308810D01*
X259675Y308737D01*
X259605Y308667D01*
X259532Y308599D01*
X259457Y308534D01*
X259379Y308472D01*
X259299Y308414D01*
X259216Y308358D01*
X259132Y308306D01*
X259045Y308256D01*
X258957Y308211D01*
X258867Y308168D01*
X258775Y308129D01*
X258682Y308094D01*
X258588Y308062D01*
X258493Y308034D01*
X258397Y308009D01*
X258299Y307988D01*
X258201Y307971D01*
X258103Y307958D01*
X258004Y307949D01*
X257904Y307943D01*
X257805Y307941D01*
X256506Y307941D01*
X269245Y319625D02*
X269352Y319623D01*
X269458Y319617D01*
X269564Y319607D01*
X269670Y319594D01*
X269776Y319576D01*
X269880Y319555D01*
X269984Y319530D01*
X270087Y319501D01*
X270188Y319469D01*
X270288Y319432D01*
X270387Y319392D01*
X270485Y319349D01*
X270581Y319302D01*
X270675Y319251D01*
X270767Y319197D01*
X270857Y319140D01*
X270945Y319080D01*
X271030Y319016D01*
X271113Y318949D01*
X271194Y318879D01*
X271272Y318807D01*
X271348Y318731D01*
X271420Y318653D01*
X271490Y318572D01*
X271557Y318489D01*
X271621Y318404D01*
X271681Y318316D01*
X271738Y318226D01*
X271792Y318134D01*
X271843Y318040D01*
X271890Y317944D01*
X271933Y317846D01*
X271973Y317747D01*
X272010Y317647D01*
X272042Y317546D01*
X272071Y317443D01*
X272096Y317339D01*
X272117Y317235D01*
X272135Y317129D01*
X272148Y317023D01*
X272158Y316917D01*
X272164Y316811D01*
X272166Y316704D01*
X269245Y319625D02*
X269124Y319623D01*
X269003Y319617D01*
X268883Y319607D01*
X268762Y319594D01*
X268643Y319576D01*
X268523Y319555D01*
X268405Y319530D01*
X268288Y319501D01*
X268171Y319468D01*
X268056Y319432D01*
X267942Y319391D01*
X267829Y319348D01*
X267717Y319300D01*
X267608Y319249D01*
X267500Y319194D01*
X267393Y319136D01*
X267289Y319075D01*
X267187Y319010D01*
X267087Y318942D01*
X266989Y318871D01*
X266893Y318797D01*
X266800Y318720D01*
X266710Y318639D01*
X266622Y318556D01*
X266537Y318470D01*
X266454Y318381D01*
X266375Y318290D01*
X266298Y318196D01*
X266225Y318100D01*
X266155Y318002D01*
X266088Y317901D01*
X266024Y317798D01*
X265964Y317693D01*
X265907Y317586D01*
X265853Y317478D01*
X265803Y317368D01*
X265757Y317256D01*
X265714Y317143D01*
X265675Y317028D01*
X271192Y314432D02*
X271271Y314509D01*
X271347Y314590D01*
X271420Y314673D01*
X271490Y314758D01*
X271557Y314846D01*
X271621Y314936D01*
X271681Y315028D01*
X271738Y315123D01*
X271792Y315219D01*
X271843Y315317D01*
X271890Y315417D01*
X271934Y315519D01*
X271974Y315622D01*
X272010Y315726D01*
X272042Y315832D01*
X272071Y315938D01*
X272096Y316046D01*
X272118Y316154D01*
X272135Y316264D01*
X272149Y316373D01*
X272158Y316483D01*
X272164Y316594D01*
X272166Y316704D01*
X271192Y314432D02*
X265674Y307941D01*
X272166Y307941D01*
D10*
X379234Y337633D02*
X379234Y385433D01*
X379234Y337633D02*
X379234Y321933D01*
X304534Y321933D01*
X304534Y337633D01*
X304534Y385433D01*
X332284Y385433D01*
X379234Y385433D01*
X332284Y385433D02*
X332284Y382133D01*
X325884Y382133D01*
X325884Y385333D01*
X304534Y337633D02*
X379234Y337633D01*
D11*
X330395Y324041D02*
X327799Y324041D01*
X327700Y324043D01*
X327600Y324049D01*
X327501Y324058D01*
X327403Y324071D01*
X327305Y324088D01*
X327207Y324109D01*
X327111Y324134D01*
X327016Y324162D01*
X326922Y324194D01*
X326829Y324229D01*
X326737Y324268D01*
X326647Y324311D01*
X326559Y324356D01*
X326472Y324406D01*
X326388Y324458D01*
X326305Y324514D01*
X326225Y324572D01*
X326147Y324634D01*
X326072Y324699D01*
X325999Y324767D01*
X325929Y324837D01*
X325861Y324910D01*
X325796Y324985D01*
X325734Y325063D01*
X325676Y325143D01*
X325620Y325226D01*
X325568Y325310D01*
X325518Y325397D01*
X325473Y325485D01*
X325430Y325575D01*
X325391Y325667D01*
X325356Y325760D01*
X325324Y325854D01*
X325296Y325949D01*
X325271Y326045D01*
X325250Y326143D01*
X325233Y326241D01*
X325220Y326339D01*
X325211Y326438D01*
X325205Y326538D01*
X325203Y326637D01*
X325202Y326637D02*
X325202Y333129D01*
X325203Y333129D02*
X325205Y333228D01*
X325211Y333328D01*
X325220Y333427D01*
X325233Y333525D01*
X325250Y333623D01*
X325271Y333721D01*
X325296Y333817D01*
X325324Y333912D01*
X325356Y334006D01*
X325391Y334099D01*
X325430Y334191D01*
X325473Y334281D01*
X325518Y334369D01*
X325568Y334456D01*
X325620Y334540D01*
X325676Y334623D01*
X325734Y334703D01*
X325796Y334781D01*
X325861Y334856D01*
X325929Y334929D01*
X325999Y334999D01*
X326072Y335067D01*
X326147Y335132D01*
X326225Y335194D01*
X326305Y335252D01*
X326388Y335308D01*
X326472Y335360D01*
X326559Y335410D01*
X326647Y335455D01*
X326737Y335498D01*
X326829Y335537D01*
X326921Y335572D01*
X327016Y335604D01*
X327111Y335632D01*
X327207Y335657D01*
X327305Y335678D01*
X327403Y335695D01*
X327501Y335708D01*
X327600Y335717D01*
X327700Y335723D01*
X327799Y335725D01*
X330395Y335725D01*
X335164Y335725D02*
X335164Y324041D01*
X340357Y324041D01*
X345626Y324041D02*
X345626Y335725D01*
X344328Y324041D02*
X346924Y324041D01*
X346924Y335725D02*
X344328Y335725D01*
X352075Y335725D02*
X352075Y324041D01*
X352075Y335725D02*
X355320Y335725D01*
X355433Y335723D01*
X355546Y335717D01*
X355659Y335707D01*
X355772Y335693D01*
X355884Y335676D01*
X355995Y335654D01*
X356105Y335629D01*
X356215Y335599D01*
X356323Y335566D01*
X356430Y335529D01*
X356536Y335489D01*
X356640Y335444D01*
X356743Y335396D01*
X356844Y335345D01*
X356943Y335290D01*
X357040Y335232D01*
X357135Y335170D01*
X357228Y335105D01*
X357318Y335037D01*
X357406Y334966D01*
X357492Y334891D01*
X357575Y334814D01*
X357655Y334734D01*
X357732Y334651D01*
X357807Y334565D01*
X357878Y334477D01*
X357946Y334387D01*
X358011Y334294D01*
X358073Y334199D01*
X358131Y334102D01*
X358186Y334003D01*
X358237Y333902D01*
X358285Y333799D01*
X358330Y333695D01*
X358370Y333589D01*
X358407Y333482D01*
X358440Y333374D01*
X358470Y333264D01*
X358495Y333154D01*
X358517Y333043D01*
X358534Y332931D01*
X358548Y332818D01*
X358558Y332705D01*
X358564Y332592D01*
X358566Y332479D01*
X358564Y332366D01*
X358558Y332253D01*
X358548Y332140D01*
X358534Y332027D01*
X358517Y331915D01*
X358495Y331804D01*
X358470Y331694D01*
X358440Y331584D01*
X358407Y331476D01*
X358370Y331369D01*
X358330Y331263D01*
X358285Y331159D01*
X358237Y331056D01*
X358186Y330955D01*
X358131Y330856D01*
X358073Y330759D01*
X358011Y330664D01*
X357946Y330571D01*
X357878Y330481D01*
X357807Y330393D01*
X357732Y330307D01*
X357655Y330224D01*
X357575Y330144D01*
X357492Y330067D01*
X357406Y329992D01*
X357318Y329921D01*
X357228Y329853D01*
X357135Y329788D01*
X357040Y329726D01*
X356943Y329668D01*
X356844Y329613D01*
X356743Y329562D01*
X356640Y329514D01*
X356536Y329469D01*
X356430Y329429D01*
X356323Y329392D01*
X356215Y329359D01*
X356105Y329329D01*
X355995Y329304D01*
X355884Y329282D01*
X355772Y329265D01*
X355659Y329251D01*
X355546Y329241D01*
X355433Y329235D01*
X355320Y329233D01*
X355320Y329234D02*
X352075Y329234D01*
X339649Y319625D02*
X339649Y310537D01*
X339647Y310438D01*
X339641Y310338D01*
X339632Y310239D01*
X339619Y310141D01*
X339602Y310043D01*
X339581Y309945D01*
X339556Y309849D01*
X339528Y309754D01*
X339496Y309660D01*
X339461Y309567D01*
X339422Y309475D01*
X339379Y309385D01*
X339334Y309297D01*
X339284Y309210D01*
X339232Y309126D01*
X339176Y309043D01*
X339118Y308963D01*
X339056Y308885D01*
X338991Y308810D01*
X338923Y308737D01*
X338853Y308667D01*
X338780Y308599D01*
X338705Y308534D01*
X338627Y308472D01*
X338547Y308414D01*
X338464Y308358D01*
X338380Y308306D01*
X338293Y308256D01*
X338205Y308211D01*
X338115Y308168D01*
X338023Y308129D01*
X337930Y308094D01*
X337836Y308062D01*
X337741Y308034D01*
X337645Y308009D01*
X337547Y307988D01*
X337449Y307971D01*
X337351Y307958D01*
X337252Y307949D01*
X337152Y307943D01*
X337053Y307941D01*
X335754Y307941D01*
X344922Y307941D02*
X348168Y307941D01*
X348281Y307943D01*
X348394Y307949D01*
X348507Y307959D01*
X348620Y307973D01*
X348732Y307990D01*
X348843Y308012D01*
X348953Y308037D01*
X349063Y308067D01*
X349171Y308100D01*
X349278Y308137D01*
X349384Y308177D01*
X349488Y308222D01*
X349591Y308270D01*
X349692Y308321D01*
X349791Y308376D01*
X349888Y308434D01*
X349983Y308496D01*
X350076Y308561D01*
X350166Y308629D01*
X350254Y308700D01*
X350340Y308775D01*
X350423Y308852D01*
X350503Y308932D01*
X350580Y309015D01*
X350655Y309101D01*
X350726Y309189D01*
X350794Y309279D01*
X350859Y309372D01*
X350921Y309467D01*
X350979Y309564D01*
X351034Y309663D01*
X351085Y309764D01*
X351133Y309867D01*
X351178Y309971D01*
X351218Y310077D01*
X351255Y310184D01*
X351288Y310292D01*
X351318Y310402D01*
X351343Y310512D01*
X351365Y310623D01*
X351382Y310735D01*
X351396Y310848D01*
X351406Y310961D01*
X351412Y311074D01*
X351414Y311187D01*
X351412Y311300D01*
X351406Y311413D01*
X351396Y311526D01*
X351382Y311639D01*
X351365Y311751D01*
X351343Y311862D01*
X351318Y311972D01*
X351288Y312082D01*
X351255Y312190D01*
X351218Y312297D01*
X351178Y312403D01*
X351133Y312507D01*
X351085Y312610D01*
X351034Y312711D01*
X350979Y312810D01*
X350921Y312907D01*
X350859Y313002D01*
X350794Y313095D01*
X350726Y313185D01*
X350655Y313273D01*
X350580Y313359D01*
X350503Y313442D01*
X350423Y313522D01*
X350340Y313599D01*
X350254Y313674D01*
X350166Y313745D01*
X350076Y313813D01*
X349983Y313878D01*
X349888Y313940D01*
X349791Y313998D01*
X349692Y314053D01*
X349591Y314104D01*
X349488Y314152D01*
X349384Y314197D01*
X349278Y314237D01*
X349171Y314274D01*
X349063Y314307D01*
X348953Y314337D01*
X348843Y314362D01*
X348732Y314384D01*
X348620Y314401D01*
X348507Y314415D01*
X348394Y314425D01*
X348281Y314431D01*
X348168Y314433D01*
X348817Y319625D02*
X344922Y319625D01*
X348817Y319625D02*
X348918Y319623D01*
X349018Y319617D01*
X349118Y319607D01*
X349218Y319594D01*
X349317Y319576D01*
X349416Y319555D01*
X349513Y319530D01*
X349610Y319501D01*
X349705Y319468D01*
X349799Y319432D01*
X349891Y319392D01*
X349982Y319349D01*
X350071Y319302D01*
X350158Y319252D01*
X350244Y319198D01*
X350327Y319141D01*
X350407Y319081D01*
X350486Y319018D01*
X350562Y318951D01*
X350635Y318882D01*
X350705Y318810D01*
X350773Y318736D01*
X350838Y318659D01*
X350899Y318579D01*
X350958Y318497D01*
X351013Y318413D01*
X351065Y318327D01*
X351114Y318239D01*
X351159Y318149D01*
X351201Y318057D01*
X351239Y317964D01*
X351273Y317869D01*
X351304Y317774D01*
X351331Y317677D01*
X351354Y317579D01*
X351374Y317480D01*
X351389Y317380D01*
X351401Y317280D01*
X351409Y317180D01*
X351413Y317079D01*
X351413Y316979D01*
X351409Y316878D01*
X351401Y316778D01*
X351389Y316678D01*
X351374Y316578D01*
X351354Y316479D01*
X351331Y316381D01*
X351304Y316284D01*
X351273Y316189D01*
X351239Y316094D01*
X351201Y316001D01*
X351159Y315909D01*
X351114Y315819D01*
X351065Y315731D01*
X351013Y315645D01*
X350958Y315561D01*
X350899Y315479D01*
X350838Y315399D01*
X350773Y315322D01*
X350705Y315248D01*
X350635Y315176D01*
X350562Y315107D01*
X350486Y315040D01*
X350407Y314977D01*
X350327Y314917D01*
X350244Y314860D01*
X350158Y314806D01*
X350071Y314756D01*
X349982Y314709D01*
X349891Y314666D01*
X349799Y314626D01*
X349705Y314590D01*
X349610Y314557D01*
X349513Y314528D01*
X349416Y314503D01*
X349317Y314482D01*
X349218Y314464D01*
X349118Y314451D01*
X349018Y314441D01*
X348918Y314435D01*
X348817Y314433D01*
X348817Y314432D02*
X346221Y314432D01*
D10*
X94034Y201222D02*
X69034Y201222D01*
X69034Y176222D02*
X94034Y176222D01*
D14*
X59334Y196722D02*
X59336Y196791D01*
X59342Y196860D01*
X59352Y196928D01*
X59366Y196996D01*
X59383Y197063D01*
X59405Y197129D01*
X59430Y197193D01*
X59459Y197256D01*
X59492Y197317D01*
X59528Y197376D01*
X59567Y197433D01*
X59610Y197487D01*
X59655Y197539D01*
X59704Y197589D01*
X59755Y197635D01*
X59809Y197678D01*
X59866Y197719D01*
X59924Y197755D01*
X59985Y197789D01*
X60047Y197819D01*
X60111Y197845D01*
X60176Y197867D01*
X60243Y197886D01*
X60311Y197901D01*
X60379Y197912D01*
X60448Y197919D01*
X60517Y197922D01*
X60586Y197921D01*
X60655Y197916D01*
X60723Y197907D01*
X60791Y197894D01*
X60858Y197877D01*
X60925Y197857D01*
X60989Y197832D01*
X61052Y197804D01*
X61114Y197773D01*
X61173Y197737D01*
X61231Y197699D01*
X61286Y197657D01*
X61339Y197612D01*
X61389Y197564D01*
X61436Y197514D01*
X61480Y197460D01*
X61521Y197405D01*
X61559Y197347D01*
X61593Y197287D01*
X61624Y197225D01*
X61651Y197161D01*
X61674Y197096D01*
X61694Y197030D01*
X61710Y196962D01*
X61722Y196894D01*
X61730Y196826D01*
X61734Y196757D01*
X61734Y196687D01*
X61730Y196618D01*
X61722Y196550D01*
X61710Y196482D01*
X61694Y196414D01*
X61674Y196348D01*
X61651Y196283D01*
X61624Y196219D01*
X61593Y196157D01*
X61559Y196097D01*
X61521Y196039D01*
X61480Y195984D01*
X61436Y195930D01*
X61389Y195880D01*
X61339Y195832D01*
X61286Y195787D01*
X61231Y195745D01*
X61173Y195707D01*
X61114Y195671D01*
X61052Y195640D01*
X60989Y195612D01*
X60925Y195587D01*
X60858Y195567D01*
X60791Y195550D01*
X60723Y195537D01*
X60655Y195528D01*
X60586Y195523D01*
X60517Y195522D01*
X60448Y195525D01*
X60379Y195532D01*
X60311Y195543D01*
X60243Y195558D01*
X60176Y195577D01*
X60111Y195599D01*
X60047Y195625D01*
X59985Y195655D01*
X59924Y195689D01*
X59866Y195725D01*
X59809Y195766D01*
X59755Y195809D01*
X59704Y195855D01*
X59655Y195905D01*
X59610Y195957D01*
X59567Y196011D01*
X59528Y196068D01*
X59492Y196127D01*
X59459Y196188D01*
X59430Y196251D01*
X59405Y196315D01*
X59383Y196381D01*
X59366Y196448D01*
X59352Y196516D01*
X59342Y196584D01*
X59336Y196653D01*
X59334Y196722D01*
D12*
X68888Y205748D02*
X68888Y212551D01*
X68889Y205748D02*
X68891Y205647D01*
X68897Y205545D01*
X68907Y205444D01*
X68920Y205344D01*
X68938Y205244D01*
X68960Y205145D01*
X68985Y205046D01*
X69014Y204949D01*
X69047Y204853D01*
X69083Y204759D01*
X69123Y204665D01*
X69167Y204574D01*
X69215Y204484D01*
X69265Y204396D01*
X69319Y204310D01*
X69377Y204227D01*
X69437Y204145D01*
X69501Y204066D01*
X69568Y203990D01*
X69637Y203916D01*
X69710Y203845D01*
X69785Y203777D01*
X69863Y203712D01*
X69943Y203650D01*
X70025Y203591D01*
X70110Y203535D01*
X70197Y203482D01*
X70286Y203433D01*
X70376Y203388D01*
X70469Y203346D01*
X70563Y203308D01*
X70658Y203273D01*
X70755Y203242D01*
X70852Y203215D01*
X70951Y203191D01*
X71051Y203172D01*
X71151Y203156D01*
X71252Y203144D01*
X71353Y203136D01*
X71454Y203132D01*
X71556Y203132D01*
X71657Y203136D01*
X71758Y203144D01*
X71859Y203156D01*
X71959Y203172D01*
X72059Y203191D01*
X72158Y203215D01*
X72255Y203242D01*
X72352Y203273D01*
X72447Y203308D01*
X72541Y203346D01*
X72634Y203388D01*
X72724Y203433D01*
X72813Y203482D01*
X72900Y203535D01*
X72985Y203591D01*
X73067Y203650D01*
X73147Y203712D01*
X73225Y203777D01*
X73300Y203845D01*
X73373Y203916D01*
X73442Y203990D01*
X73509Y204066D01*
X73573Y204145D01*
X73633Y204227D01*
X73691Y204310D01*
X73745Y204396D01*
X73795Y204484D01*
X73843Y204574D01*
X73887Y204665D01*
X73927Y204759D01*
X73963Y204853D01*
X73996Y204949D01*
X74025Y205046D01*
X74050Y205145D01*
X74072Y205244D01*
X74090Y205344D01*
X74103Y205444D01*
X74113Y205545D01*
X74119Y205647D01*
X74121Y205748D01*
X74121Y212551D01*
X78357Y210457D02*
X80973Y212551D01*
X80973Y203132D01*
X78357Y203132D02*
X83589Y203132D01*
D10*
X466852Y257683D02*
X466852Y269113D01*
X463677Y269113D02*
X470027Y269113D01*
X474917Y269113D02*
X474917Y257683D01*
X474917Y269113D02*
X478092Y269113D01*
X478203Y269111D01*
X478313Y269105D01*
X478424Y269096D01*
X478534Y269082D01*
X478643Y269065D01*
X478752Y269044D01*
X478860Y269019D01*
X478967Y268990D01*
X479073Y268958D01*
X479178Y268922D01*
X479281Y268882D01*
X479383Y268839D01*
X479484Y268792D01*
X479583Y268741D01*
X479680Y268688D01*
X479774Y268631D01*
X479867Y268570D01*
X479958Y268507D01*
X480047Y268440D01*
X480133Y268370D01*
X480216Y268297D01*
X480298Y268222D01*
X480376Y268144D01*
X480451Y268062D01*
X480524Y267979D01*
X480594Y267893D01*
X480661Y267804D01*
X480724Y267713D01*
X480785Y267620D01*
X480842Y267525D01*
X480895Y267429D01*
X480946Y267330D01*
X480993Y267229D01*
X481036Y267127D01*
X481076Y267024D01*
X481112Y266919D01*
X481144Y266813D01*
X481173Y266706D01*
X481198Y266598D01*
X481219Y266489D01*
X481236Y266380D01*
X481250Y266270D01*
X481259Y266159D01*
X481265Y266049D01*
X481267Y265938D01*
X481265Y265827D01*
X481259Y265717D01*
X481250Y265606D01*
X481236Y265496D01*
X481219Y265387D01*
X481198Y265278D01*
X481173Y265170D01*
X481144Y265063D01*
X481112Y264957D01*
X481076Y264852D01*
X481036Y264749D01*
X480993Y264647D01*
X480946Y264546D01*
X480895Y264447D01*
X480842Y264350D01*
X480785Y264256D01*
X480724Y264163D01*
X480661Y264072D01*
X480594Y263983D01*
X480524Y263897D01*
X480451Y263814D01*
X480376Y263732D01*
X480298Y263654D01*
X480216Y263579D01*
X480133Y263506D01*
X480047Y263436D01*
X479958Y263369D01*
X479867Y263306D01*
X479774Y263245D01*
X479680Y263188D01*
X479583Y263135D01*
X479484Y263084D01*
X479383Y263037D01*
X479281Y262994D01*
X479178Y262954D01*
X479073Y262918D01*
X478967Y262886D01*
X478860Y262857D01*
X478752Y262832D01*
X478643Y262811D01*
X478534Y262794D01*
X478424Y262780D01*
X478313Y262771D01*
X478203Y262765D01*
X478092Y262763D01*
X474917Y262763D01*
X485267Y256413D02*
X490347Y256413D01*
X494919Y257683D02*
X498729Y257683D01*
X498829Y257685D01*
X498928Y257691D01*
X499028Y257701D01*
X499126Y257714D01*
X499225Y257732D01*
X499322Y257753D01*
X499418Y257778D01*
X499514Y257807D01*
X499608Y257840D01*
X499701Y257876D01*
X499792Y257916D01*
X499882Y257960D01*
X499970Y258007D01*
X500056Y258057D01*
X500140Y258111D01*
X500222Y258168D01*
X500301Y258228D01*
X500379Y258292D01*
X500453Y258358D01*
X500525Y258427D01*
X500594Y258499D01*
X500660Y258573D01*
X500724Y258651D01*
X500784Y258730D01*
X500841Y258812D01*
X500895Y258896D01*
X500945Y258982D01*
X500992Y259070D01*
X501036Y259160D01*
X501076Y259251D01*
X501112Y259344D01*
X501145Y259438D01*
X501174Y259534D01*
X501199Y259630D01*
X501220Y259727D01*
X501238Y259826D01*
X501251Y259924D01*
X501261Y260024D01*
X501267Y260123D01*
X501269Y260223D01*
X501269Y261493D01*
X501267Y261593D01*
X501261Y261692D01*
X501251Y261792D01*
X501238Y261890D01*
X501220Y261989D01*
X501199Y262086D01*
X501174Y262182D01*
X501145Y262278D01*
X501112Y262372D01*
X501076Y262465D01*
X501036Y262556D01*
X500992Y262646D01*
X500945Y262734D01*
X500895Y262820D01*
X500841Y262904D01*
X500784Y262986D01*
X500724Y263065D01*
X500660Y263143D01*
X500594Y263217D01*
X500525Y263289D01*
X500453Y263358D01*
X500379Y263424D01*
X500301Y263488D01*
X500222Y263548D01*
X500140Y263605D01*
X500056Y263659D01*
X499970Y263709D01*
X499882Y263756D01*
X499792Y263800D01*
X499701Y263840D01*
X499608Y263876D01*
X499514Y263909D01*
X499418Y263938D01*
X499322Y263963D01*
X499225Y263984D01*
X499126Y264002D01*
X499028Y264015D01*
X498928Y264025D01*
X498829Y264031D01*
X498729Y264033D01*
X494919Y264033D01*
X494919Y269113D01*
X501269Y269113D01*
X505714Y269113D02*
X509524Y257683D01*
X513334Y269113D01*
X475564Y1270D02*
X167564Y1270D01*
X167564Y162270D01*
X475564Y162270D01*
X475564Y1270D01*
X475064Y31670D02*
X167064Y31670D01*
D11*
X388564Y15362D02*
X388564Y3678D01*
X388564Y15362D02*
X391810Y15362D01*
X391923Y15360D01*
X392036Y15354D01*
X392149Y15344D01*
X392262Y15330D01*
X392374Y15313D01*
X392485Y15291D01*
X392595Y15266D01*
X392705Y15236D01*
X392813Y15203D01*
X392920Y15166D01*
X393026Y15126D01*
X393130Y15081D01*
X393233Y15033D01*
X393334Y14982D01*
X393433Y14927D01*
X393530Y14869D01*
X393625Y14807D01*
X393718Y14742D01*
X393808Y14674D01*
X393896Y14603D01*
X393982Y14528D01*
X394065Y14451D01*
X394145Y14371D01*
X394222Y14288D01*
X394297Y14202D01*
X394368Y14114D01*
X394436Y14024D01*
X394501Y13931D01*
X394563Y13836D01*
X394621Y13739D01*
X394676Y13640D01*
X394727Y13539D01*
X394775Y13436D01*
X394820Y13332D01*
X394860Y13226D01*
X394897Y13119D01*
X394930Y13011D01*
X394960Y12901D01*
X394985Y12791D01*
X395007Y12680D01*
X395024Y12568D01*
X395038Y12455D01*
X395048Y12342D01*
X395054Y12229D01*
X395056Y12116D01*
X395055Y12116D02*
X395055Y6924D01*
X395056Y6924D02*
X395054Y6811D01*
X395048Y6698D01*
X395038Y6585D01*
X395024Y6472D01*
X395007Y6360D01*
X394985Y6249D01*
X394960Y6139D01*
X394930Y6029D01*
X394897Y5921D01*
X394860Y5814D01*
X394820Y5708D01*
X394775Y5604D01*
X394727Y5501D01*
X394676Y5400D01*
X394621Y5301D01*
X394563Y5204D01*
X394501Y5109D01*
X394436Y5016D01*
X394368Y4926D01*
X394297Y4838D01*
X394222Y4752D01*
X394145Y4669D01*
X394065Y4589D01*
X393982Y4512D01*
X393896Y4437D01*
X393808Y4366D01*
X393718Y4298D01*
X393625Y4233D01*
X393530Y4171D01*
X393433Y4113D01*
X393334Y4058D01*
X393233Y4007D01*
X393130Y3959D01*
X393026Y3914D01*
X392920Y3874D01*
X392813Y3837D01*
X392705Y3804D01*
X392595Y3774D01*
X392485Y3749D01*
X392374Y3727D01*
X392262Y3710D01*
X392149Y3696D01*
X392036Y3686D01*
X391923Y3680D01*
X391810Y3678D01*
X388564Y3678D01*
X403889Y3678D02*
X403988Y3680D01*
X404088Y3686D01*
X404187Y3695D01*
X404285Y3708D01*
X404383Y3725D01*
X404481Y3746D01*
X404577Y3771D01*
X404672Y3799D01*
X404766Y3831D01*
X404859Y3866D01*
X404951Y3905D01*
X405041Y3948D01*
X405129Y3993D01*
X405216Y4043D01*
X405300Y4095D01*
X405383Y4151D01*
X405463Y4209D01*
X405541Y4271D01*
X405616Y4336D01*
X405689Y4404D01*
X405759Y4474D01*
X405827Y4547D01*
X405892Y4622D01*
X405954Y4700D01*
X406012Y4780D01*
X406068Y4863D01*
X406120Y4947D01*
X406170Y5034D01*
X406215Y5122D01*
X406258Y5212D01*
X406297Y5304D01*
X406332Y5397D01*
X406364Y5491D01*
X406392Y5586D01*
X406417Y5682D01*
X406438Y5780D01*
X406455Y5878D01*
X406468Y5976D01*
X406477Y6075D01*
X406483Y6175D01*
X406485Y6274D01*
X403889Y3678D02*
X403745Y3680D01*
X403600Y3686D01*
X403456Y3695D01*
X403313Y3708D01*
X403169Y3725D01*
X403026Y3746D01*
X402884Y3771D01*
X402743Y3799D01*
X402602Y3831D01*
X402462Y3867D01*
X402323Y3906D01*
X402185Y3949D01*
X402049Y3996D01*
X401913Y4046D01*
X401779Y4100D01*
X401647Y4157D01*
X401516Y4218D01*
X401387Y4282D01*
X401259Y4350D01*
X401133Y4420D01*
X401009Y4495D01*
X400888Y4572D01*
X400768Y4653D01*
X400650Y4736D01*
X400535Y4823D01*
X400422Y4913D01*
X400311Y5006D01*
X400203Y5101D01*
X400097Y5200D01*
X399994Y5301D01*
X400319Y12766D02*
X400321Y12865D01*
X400327Y12965D01*
X400336Y13064D01*
X400349Y13162D01*
X400366Y13260D01*
X400387Y13358D01*
X400412Y13454D01*
X400440Y13549D01*
X400472Y13643D01*
X400507Y13736D01*
X400546Y13828D01*
X400589Y13918D01*
X400634Y14006D01*
X400684Y14093D01*
X400736Y14177D01*
X400792Y14260D01*
X400850Y14340D01*
X400912Y14418D01*
X400977Y14493D01*
X401045Y14566D01*
X401115Y14636D01*
X401188Y14704D01*
X401263Y14769D01*
X401341Y14831D01*
X401421Y14889D01*
X401504Y14945D01*
X401588Y14997D01*
X401675Y15047D01*
X401763Y15092D01*
X401853Y15135D01*
X401945Y15174D01*
X402038Y15209D01*
X402132Y15241D01*
X402227Y15269D01*
X402324Y15294D01*
X402421Y15315D01*
X402519Y15332D01*
X402617Y15345D01*
X402716Y15354D01*
X402816Y15360D01*
X402915Y15362D01*
X403051Y15360D01*
X403187Y15354D01*
X403323Y15345D01*
X403459Y15332D01*
X403594Y15314D01*
X403728Y15294D01*
X403862Y15269D01*
X403996Y15241D01*
X404128Y15208D01*
X404259Y15173D01*
X404390Y15133D01*
X404519Y15090D01*
X404647Y15044D01*
X404773Y14993D01*
X404899Y14940D01*
X405022Y14882D01*
X405144Y14822D01*
X405264Y14758D01*
X405383Y14690D01*
X405499Y14620D01*
X405613Y14546D01*
X405726Y14469D01*
X405836Y14388D01*
X401617Y10494D02*
X401531Y10547D01*
X401447Y10604D01*
X401365Y10663D01*
X401285Y10726D01*
X401208Y10792D01*
X401133Y10860D01*
X401061Y10932D01*
X400992Y11006D01*
X400926Y11083D01*
X400863Y11162D01*
X400803Y11244D01*
X400746Y11328D01*
X400692Y11414D01*
X400642Y11502D01*
X400595Y11592D01*
X400551Y11683D01*
X400512Y11777D01*
X400475Y11871D01*
X400443Y11967D01*
X400414Y12065D01*
X400389Y12163D01*
X400368Y12262D01*
X400350Y12362D01*
X400337Y12462D01*
X400327Y12563D01*
X400321Y12665D01*
X400319Y12766D01*
X405187Y8546D02*
X405273Y8493D01*
X405357Y8436D01*
X405439Y8377D01*
X405519Y8314D01*
X405596Y8248D01*
X405671Y8180D01*
X405743Y8108D01*
X405812Y8034D01*
X405878Y7957D01*
X405941Y7878D01*
X406001Y7796D01*
X406058Y7712D01*
X406112Y7626D01*
X406162Y7538D01*
X406209Y7448D01*
X406253Y7357D01*
X406292Y7263D01*
X406329Y7169D01*
X406361Y7073D01*
X406390Y6975D01*
X406415Y6877D01*
X406436Y6778D01*
X406454Y6678D01*
X406467Y6578D01*
X406477Y6477D01*
X406483Y6375D01*
X406485Y6274D01*
X405187Y8546D02*
X401617Y10494D01*
X411424Y6924D02*
X411424Y15362D01*
X411424Y6924D02*
X411426Y6811D01*
X411432Y6698D01*
X411442Y6585D01*
X411456Y6472D01*
X411473Y6360D01*
X411495Y6249D01*
X411520Y6139D01*
X411550Y6029D01*
X411583Y5921D01*
X411620Y5814D01*
X411660Y5708D01*
X411705Y5604D01*
X411753Y5501D01*
X411804Y5400D01*
X411859Y5301D01*
X411917Y5204D01*
X411979Y5109D01*
X412044Y5016D01*
X412112Y4926D01*
X412183Y4838D01*
X412258Y4752D01*
X412335Y4669D01*
X412415Y4589D01*
X412498Y4512D01*
X412584Y4437D01*
X412672Y4366D01*
X412762Y4298D01*
X412855Y4233D01*
X412950Y4171D01*
X413047Y4113D01*
X413146Y4058D01*
X413247Y4007D01*
X413350Y3959D01*
X413454Y3914D01*
X413560Y3874D01*
X413667Y3837D01*
X413775Y3804D01*
X413885Y3774D01*
X413995Y3749D01*
X414106Y3727D01*
X414218Y3710D01*
X414331Y3696D01*
X414444Y3686D01*
X414557Y3680D01*
X414670Y3678D01*
X414783Y3680D01*
X414896Y3686D01*
X415009Y3696D01*
X415122Y3710D01*
X415234Y3727D01*
X415345Y3749D01*
X415455Y3774D01*
X415565Y3804D01*
X415673Y3837D01*
X415780Y3874D01*
X415886Y3914D01*
X415990Y3959D01*
X416093Y4007D01*
X416194Y4058D01*
X416293Y4113D01*
X416390Y4171D01*
X416485Y4233D01*
X416578Y4298D01*
X416668Y4366D01*
X416756Y4437D01*
X416842Y4512D01*
X416925Y4589D01*
X417005Y4669D01*
X417082Y4752D01*
X417157Y4838D01*
X417228Y4926D01*
X417296Y5016D01*
X417361Y5109D01*
X417423Y5204D01*
X417481Y5301D01*
X417536Y5400D01*
X417587Y5501D01*
X417635Y5604D01*
X417680Y5708D01*
X417720Y5814D01*
X417757Y5921D01*
X417790Y6029D01*
X417820Y6139D01*
X417845Y6249D01*
X417867Y6360D01*
X417884Y6472D01*
X417898Y6585D01*
X417908Y6698D01*
X417914Y6811D01*
X417916Y6924D01*
X417915Y6924D02*
X417915Y15362D01*
X423785Y10169D02*
X427031Y10169D01*
X427031Y10170D02*
X427144Y10168D01*
X427257Y10162D01*
X427370Y10152D01*
X427483Y10138D01*
X427595Y10121D01*
X427706Y10099D01*
X427816Y10074D01*
X427926Y10044D01*
X428034Y10011D01*
X428141Y9974D01*
X428247Y9934D01*
X428351Y9889D01*
X428454Y9841D01*
X428555Y9790D01*
X428654Y9735D01*
X428751Y9677D01*
X428846Y9615D01*
X428939Y9550D01*
X429029Y9482D01*
X429117Y9411D01*
X429203Y9336D01*
X429286Y9259D01*
X429366Y9179D01*
X429443Y9096D01*
X429518Y9010D01*
X429589Y8922D01*
X429657Y8832D01*
X429722Y8739D01*
X429784Y8644D01*
X429842Y8547D01*
X429897Y8448D01*
X429948Y8347D01*
X429996Y8244D01*
X430041Y8140D01*
X430081Y8034D01*
X430118Y7927D01*
X430151Y7819D01*
X430181Y7709D01*
X430206Y7599D01*
X430228Y7488D01*
X430245Y7376D01*
X430259Y7263D01*
X430269Y7150D01*
X430275Y7037D01*
X430277Y6924D01*
X430275Y6811D01*
X430269Y6698D01*
X430259Y6585D01*
X430245Y6472D01*
X430228Y6360D01*
X430206Y6249D01*
X430181Y6139D01*
X430151Y6029D01*
X430118Y5921D01*
X430081Y5814D01*
X430041Y5708D01*
X429996Y5604D01*
X429948Y5501D01*
X429897Y5400D01*
X429842Y5301D01*
X429784Y5204D01*
X429722Y5109D01*
X429657Y5016D01*
X429589Y4926D01*
X429518Y4838D01*
X429443Y4752D01*
X429366Y4669D01*
X429286Y4589D01*
X429203Y4512D01*
X429117Y4437D01*
X429029Y4366D01*
X428939Y4298D01*
X428846Y4233D01*
X428751Y4171D01*
X428654Y4113D01*
X428555Y4058D01*
X428454Y4007D01*
X428351Y3959D01*
X428247Y3914D01*
X428141Y3874D01*
X428034Y3837D01*
X427926Y3804D01*
X427816Y3774D01*
X427706Y3749D01*
X427595Y3727D01*
X427483Y3710D01*
X427370Y3696D01*
X427257Y3686D01*
X427144Y3680D01*
X427031Y3678D01*
X423785Y3678D01*
X423785Y15362D01*
X427031Y15362D01*
X427132Y15360D01*
X427232Y15354D01*
X427332Y15344D01*
X427432Y15331D01*
X427531Y15313D01*
X427630Y15292D01*
X427727Y15267D01*
X427824Y15238D01*
X427919Y15205D01*
X428013Y15169D01*
X428105Y15129D01*
X428196Y15086D01*
X428285Y15039D01*
X428372Y14989D01*
X428458Y14935D01*
X428541Y14878D01*
X428621Y14818D01*
X428700Y14755D01*
X428776Y14688D01*
X428849Y14619D01*
X428919Y14547D01*
X428987Y14473D01*
X429052Y14396D01*
X429113Y14316D01*
X429172Y14234D01*
X429227Y14150D01*
X429279Y14064D01*
X429328Y13976D01*
X429373Y13886D01*
X429415Y13794D01*
X429453Y13701D01*
X429487Y13606D01*
X429518Y13511D01*
X429545Y13414D01*
X429568Y13316D01*
X429588Y13217D01*
X429603Y13117D01*
X429615Y13017D01*
X429623Y12917D01*
X429627Y12816D01*
X429627Y12716D01*
X429623Y12615D01*
X429615Y12515D01*
X429603Y12415D01*
X429588Y12315D01*
X429568Y12216D01*
X429545Y12118D01*
X429518Y12021D01*
X429487Y11926D01*
X429453Y11831D01*
X429415Y11738D01*
X429373Y11646D01*
X429328Y11556D01*
X429279Y11468D01*
X429227Y11382D01*
X429172Y11298D01*
X429113Y11216D01*
X429052Y11136D01*
X428987Y11059D01*
X428919Y10985D01*
X428849Y10913D01*
X428776Y10844D01*
X428700Y10777D01*
X428621Y10714D01*
X428541Y10654D01*
X428458Y10597D01*
X428372Y10543D01*
X428285Y10493D01*
X428196Y10446D01*
X428105Y10403D01*
X428013Y10363D01*
X427919Y10327D01*
X427824Y10294D01*
X427727Y10265D01*
X427630Y10240D01*
X427531Y10219D01*
X427432Y10201D01*
X427332Y10188D01*
X427232Y10178D01*
X427132Y10172D01*
X427031Y10170D01*
X434665Y12766D02*
X437910Y15362D01*
X437910Y3678D01*
X434665Y3678D02*
X441156Y3678D01*
D10*
X578993Y167894D02*
X578993Y179324D01*
X575818Y179324D02*
X582168Y179324D01*
X587058Y179324D02*
X587058Y167894D01*
X587058Y179324D02*
X590233Y179324D01*
X590344Y179322D01*
X590454Y179316D01*
X590565Y179307D01*
X590675Y179293D01*
X590784Y179276D01*
X590893Y179255D01*
X591001Y179230D01*
X591108Y179201D01*
X591214Y179169D01*
X591319Y179133D01*
X591422Y179093D01*
X591524Y179050D01*
X591625Y179003D01*
X591724Y178952D01*
X591821Y178899D01*
X591915Y178842D01*
X592008Y178781D01*
X592099Y178718D01*
X592188Y178651D01*
X592274Y178581D01*
X592357Y178508D01*
X592439Y178433D01*
X592517Y178355D01*
X592592Y178273D01*
X592665Y178190D01*
X592735Y178104D01*
X592802Y178015D01*
X592865Y177924D01*
X592926Y177831D01*
X592983Y177736D01*
X593036Y177640D01*
X593087Y177541D01*
X593134Y177440D01*
X593177Y177338D01*
X593217Y177235D01*
X593253Y177130D01*
X593285Y177024D01*
X593314Y176917D01*
X593339Y176809D01*
X593360Y176700D01*
X593377Y176591D01*
X593391Y176481D01*
X593400Y176370D01*
X593406Y176260D01*
X593408Y176149D01*
X593406Y176038D01*
X593400Y175928D01*
X593391Y175817D01*
X593377Y175707D01*
X593360Y175598D01*
X593339Y175489D01*
X593314Y175381D01*
X593285Y175274D01*
X593253Y175168D01*
X593217Y175063D01*
X593177Y174960D01*
X593134Y174858D01*
X593087Y174757D01*
X593036Y174658D01*
X592983Y174561D01*
X592926Y174467D01*
X592865Y174374D01*
X592802Y174283D01*
X592735Y174194D01*
X592665Y174108D01*
X592592Y174025D01*
X592517Y173943D01*
X592439Y173865D01*
X592357Y173790D01*
X592274Y173717D01*
X592188Y173647D01*
X592099Y173580D01*
X592008Y173517D01*
X591915Y173456D01*
X591821Y173399D01*
X591724Y173346D01*
X591625Y173295D01*
X591524Y173248D01*
X591422Y173205D01*
X591319Y173165D01*
X591214Y173129D01*
X591108Y173097D01*
X591001Y173068D01*
X590893Y173043D01*
X590784Y173022D01*
X590675Y173005D01*
X590565Y172991D01*
X590454Y172982D01*
X590344Y172976D01*
X590233Y172974D01*
X587058Y172974D01*
X597408Y166624D02*
X602488Y166624D01*
X610235Y167894D02*
X606425Y179324D01*
X614045Y179324D02*
X610235Y167894D01*
X619379Y167894D02*
X619379Y179324D01*
X618109Y167894D02*
X620649Y167894D01*
X620649Y179324D02*
X618109Y179324D01*
X625729Y179324D02*
X625729Y167894D01*
X632079Y167894D02*
X625729Y179324D01*
X632079Y179324D02*
X632079Y167894D01*
D11*
X118237Y126111D02*
X118237Y116967D01*
X115697Y126111D02*
X120777Y126111D01*
X124689Y126111D02*
X124689Y116967D01*
X124689Y126111D02*
X127229Y126111D01*
X127329Y126109D01*
X127428Y126103D01*
X127528Y126093D01*
X127626Y126080D01*
X127725Y126062D01*
X127822Y126041D01*
X127918Y126016D01*
X128014Y125987D01*
X128108Y125954D01*
X128201Y125918D01*
X128292Y125878D01*
X128382Y125834D01*
X128470Y125787D01*
X128556Y125737D01*
X128640Y125683D01*
X128722Y125626D01*
X128801Y125566D01*
X128879Y125502D01*
X128953Y125436D01*
X129025Y125367D01*
X129094Y125295D01*
X129160Y125221D01*
X129224Y125143D01*
X129284Y125064D01*
X129341Y124982D01*
X129395Y124898D01*
X129445Y124812D01*
X129492Y124724D01*
X129536Y124634D01*
X129576Y124543D01*
X129612Y124450D01*
X129645Y124356D01*
X129674Y124260D01*
X129699Y124164D01*
X129720Y124067D01*
X129738Y123968D01*
X129751Y123870D01*
X129761Y123770D01*
X129767Y123671D01*
X129769Y123571D01*
X129767Y123471D01*
X129761Y123372D01*
X129751Y123272D01*
X129738Y123174D01*
X129720Y123075D01*
X129699Y122978D01*
X129674Y122882D01*
X129645Y122786D01*
X129612Y122692D01*
X129576Y122599D01*
X129536Y122508D01*
X129492Y122418D01*
X129445Y122330D01*
X129395Y122244D01*
X129341Y122160D01*
X129284Y122078D01*
X129224Y121999D01*
X129160Y121921D01*
X129094Y121847D01*
X129025Y121775D01*
X128953Y121706D01*
X128879Y121640D01*
X128801Y121576D01*
X128722Y121516D01*
X128640Y121459D01*
X128556Y121405D01*
X128470Y121355D01*
X128382Y121308D01*
X128292Y121264D01*
X128201Y121224D01*
X128108Y121188D01*
X128014Y121155D01*
X127918Y121126D01*
X127822Y121101D01*
X127725Y121080D01*
X127626Y121062D01*
X127528Y121049D01*
X127428Y121039D01*
X127329Y121033D01*
X127229Y121031D01*
X124689Y121031D01*
X132969Y115951D02*
X137033Y115951D01*
X144551Y122047D02*
X146075Y122047D01*
X146075Y116967D01*
X143027Y116967D01*
X142938Y116969D01*
X142850Y116975D01*
X142762Y116984D01*
X142674Y116998D01*
X142587Y117015D01*
X142501Y117036D01*
X142416Y117061D01*
X142332Y117090D01*
X142249Y117122D01*
X142168Y117157D01*
X142089Y117197D01*
X142011Y117239D01*
X141935Y117285D01*
X141861Y117334D01*
X141790Y117387D01*
X141721Y117442D01*
X141654Y117501D01*
X141590Y117562D01*
X141529Y117626D01*
X141470Y117693D01*
X141415Y117762D01*
X141362Y117833D01*
X141313Y117907D01*
X141267Y117983D01*
X141225Y118061D01*
X141185Y118140D01*
X141150Y118221D01*
X141118Y118304D01*
X141089Y118388D01*
X141064Y118473D01*
X141043Y118559D01*
X141026Y118646D01*
X141012Y118734D01*
X141003Y118822D01*
X140997Y118910D01*
X140995Y118999D01*
X140995Y124079D01*
X140997Y124168D01*
X141003Y124256D01*
X141012Y124344D01*
X141026Y124432D01*
X141043Y124519D01*
X141064Y124605D01*
X141089Y124690D01*
X141118Y124774D01*
X141150Y124857D01*
X141185Y124938D01*
X141225Y125017D01*
X141267Y125095D01*
X141313Y125171D01*
X141362Y125245D01*
X141415Y125316D01*
X141470Y125385D01*
X141529Y125452D01*
X141590Y125516D01*
X141654Y125577D01*
X141721Y125636D01*
X141790Y125691D01*
X141861Y125744D01*
X141935Y125793D01*
X142011Y125839D01*
X142089Y125881D01*
X142168Y125921D01*
X142249Y125956D01*
X142332Y125988D01*
X142416Y126017D01*
X142501Y126042D01*
X142587Y126063D01*
X142674Y126080D01*
X142762Y126094D01*
X142850Y126103D01*
X142938Y126109D01*
X143027Y126111D01*
X146075Y126111D01*
X150749Y126111D02*
X150749Y116967D01*
X155829Y116967D02*
X150749Y126111D01*
X155829Y126111D02*
X155829Y116967D01*
X160502Y116967D02*
X160502Y126111D01*
X163042Y126111D01*
X163142Y126109D01*
X163241Y126103D01*
X163341Y126093D01*
X163439Y126080D01*
X163538Y126062D01*
X163635Y126041D01*
X163731Y126016D01*
X163827Y125987D01*
X163921Y125954D01*
X164014Y125918D01*
X164105Y125878D01*
X164195Y125834D01*
X164283Y125787D01*
X164369Y125737D01*
X164453Y125683D01*
X164535Y125626D01*
X164614Y125566D01*
X164692Y125502D01*
X164766Y125436D01*
X164838Y125367D01*
X164907Y125295D01*
X164973Y125221D01*
X165037Y125143D01*
X165097Y125064D01*
X165154Y124982D01*
X165208Y124898D01*
X165258Y124812D01*
X165305Y124724D01*
X165349Y124634D01*
X165389Y124543D01*
X165425Y124450D01*
X165458Y124356D01*
X165487Y124260D01*
X165512Y124164D01*
X165533Y124067D01*
X165551Y123968D01*
X165564Y123870D01*
X165574Y123770D01*
X165580Y123671D01*
X165582Y123571D01*
X165582Y119507D01*
X165580Y119407D01*
X165574Y119308D01*
X165564Y119208D01*
X165551Y119110D01*
X165533Y119011D01*
X165512Y118914D01*
X165487Y118818D01*
X165458Y118722D01*
X165425Y118628D01*
X165389Y118535D01*
X165349Y118444D01*
X165305Y118354D01*
X165258Y118266D01*
X165208Y118180D01*
X165154Y118096D01*
X165097Y118014D01*
X165037Y117935D01*
X164973Y117857D01*
X164907Y117783D01*
X164838Y117711D01*
X164766Y117642D01*
X164692Y117576D01*
X164614Y117512D01*
X164535Y117452D01*
X164453Y117395D01*
X164369Y117341D01*
X164283Y117291D01*
X164195Y117244D01*
X164105Y117200D01*
X164014Y117160D01*
X163921Y117124D01*
X163827Y117091D01*
X163731Y117062D01*
X163635Y117037D01*
X163538Y117016D01*
X163439Y116998D01*
X163341Y116985D01*
X163241Y116975D01*
X163142Y116969D01*
X163042Y116967D01*
X160502Y116967D01*
X364363Y303784D02*
X364363Y312928D01*
X361823Y312928D02*
X366903Y312928D01*
X370815Y312928D02*
X370815Y303784D01*
X370815Y312928D02*
X373355Y312928D01*
X373455Y312926D01*
X373554Y312920D01*
X373654Y312910D01*
X373752Y312897D01*
X373851Y312879D01*
X373948Y312858D01*
X374044Y312833D01*
X374140Y312804D01*
X374234Y312771D01*
X374327Y312735D01*
X374418Y312695D01*
X374508Y312651D01*
X374596Y312604D01*
X374682Y312554D01*
X374766Y312500D01*
X374848Y312443D01*
X374927Y312383D01*
X375005Y312319D01*
X375079Y312253D01*
X375151Y312184D01*
X375220Y312112D01*
X375286Y312038D01*
X375350Y311960D01*
X375410Y311881D01*
X375467Y311799D01*
X375521Y311715D01*
X375571Y311629D01*
X375618Y311541D01*
X375662Y311451D01*
X375702Y311360D01*
X375738Y311267D01*
X375771Y311173D01*
X375800Y311077D01*
X375825Y310981D01*
X375846Y310884D01*
X375864Y310785D01*
X375877Y310687D01*
X375887Y310587D01*
X375893Y310488D01*
X375895Y310388D01*
X375893Y310288D01*
X375887Y310189D01*
X375877Y310089D01*
X375864Y309991D01*
X375846Y309892D01*
X375825Y309795D01*
X375800Y309699D01*
X375771Y309603D01*
X375738Y309509D01*
X375702Y309416D01*
X375662Y309325D01*
X375618Y309235D01*
X375571Y309147D01*
X375521Y309061D01*
X375467Y308977D01*
X375410Y308895D01*
X375350Y308816D01*
X375286Y308738D01*
X375220Y308664D01*
X375151Y308592D01*
X375079Y308523D01*
X375005Y308457D01*
X374927Y308393D01*
X374848Y308333D01*
X374766Y308276D01*
X374682Y308222D01*
X374596Y308172D01*
X374508Y308125D01*
X374418Y308081D01*
X374327Y308041D01*
X374234Y308005D01*
X374140Y307972D01*
X374044Y307943D01*
X373948Y307918D01*
X373851Y307897D01*
X373752Y307879D01*
X373654Y307866D01*
X373554Y307856D01*
X373455Y307850D01*
X373355Y307848D01*
X370815Y307848D01*
X379095Y302768D02*
X383159Y302768D01*
X388890Y305816D02*
X388890Y312928D01*
X388890Y305816D02*
X388888Y305727D01*
X388882Y305639D01*
X388873Y305551D01*
X388859Y305463D01*
X388842Y305376D01*
X388821Y305290D01*
X388796Y305205D01*
X388767Y305121D01*
X388735Y305038D01*
X388700Y304957D01*
X388660Y304878D01*
X388618Y304800D01*
X388572Y304724D01*
X388523Y304650D01*
X388470Y304579D01*
X388415Y304510D01*
X388356Y304443D01*
X388295Y304379D01*
X388231Y304318D01*
X388164Y304259D01*
X388095Y304204D01*
X388024Y304151D01*
X387950Y304102D01*
X387874Y304056D01*
X387796Y304014D01*
X387717Y303974D01*
X387636Y303939D01*
X387553Y303907D01*
X387469Y303878D01*
X387384Y303853D01*
X387298Y303832D01*
X387211Y303815D01*
X387123Y303801D01*
X387035Y303792D01*
X386947Y303786D01*
X386858Y303784D01*
X385842Y303784D01*
X393217Y303784D02*
X395757Y303784D01*
X395857Y303786D01*
X395956Y303792D01*
X396056Y303802D01*
X396154Y303815D01*
X396253Y303833D01*
X396350Y303854D01*
X396446Y303879D01*
X396542Y303908D01*
X396636Y303941D01*
X396729Y303977D01*
X396820Y304017D01*
X396910Y304061D01*
X396998Y304108D01*
X397084Y304158D01*
X397168Y304212D01*
X397250Y304269D01*
X397329Y304329D01*
X397407Y304393D01*
X397481Y304459D01*
X397553Y304528D01*
X397622Y304600D01*
X397688Y304674D01*
X397752Y304752D01*
X397812Y304831D01*
X397869Y304913D01*
X397923Y304997D01*
X397973Y305083D01*
X398020Y305171D01*
X398064Y305261D01*
X398104Y305352D01*
X398140Y305445D01*
X398173Y305539D01*
X398202Y305635D01*
X398227Y305731D01*
X398248Y305828D01*
X398266Y305927D01*
X398279Y306025D01*
X398289Y306125D01*
X398295Y306224D01*
X398297Y306324D01*
X398295Y306424D01*
X398289Y306523D01*
X398279Y306623D01*
X398266Y306721D01*
X398248Y306820D01*
X398227Y306917D01*
X398202Y307013D01*
X398173Y307109D01*
X398140Y307203D01*
X398104Y307296D01*
X398064Y307387D01*
X398020Y307477D01*
X397973Y307565D01*
X397923Y307651D01*
X397869Y307735D01*
X397812Y307817D01*
X397752Y307896D01*
X397688Y307974D01*
X397622Y308048D01*
X397553Y308120D01*
X397481Y308189D01*
X397407Y308255D01*
X397329Y308319D01*
X397250Y308379D01*
X397168Y308436D01*
X397084Y308490D01*
X396998Y308540D01*
X396910Y308587D01*
X396820Y308631D01*
X396729Y308671D01*
X396636Y308707D01*
X396542Y308740D01*
X396446Y308769D01*
X396350Y308794D01*
X396253Y308815D01*
X396154Y308833D01*
X396056Y308846D01*
X395956Y308856D01*
X395857Y308862D01*
X395757Y308864D01*
X396265Y312928D02*
X393217Y312928D01*
X396265Y312928D02*
X396354Y312926D01*
X396442Y312920D01*
X396530Y312911D01*
X396618Y312897D01*
X396705Y312880D01*
X396791Y312859D01*
X396876Y312834D01*
X396960Y312805D01*
X397043Y312773D01*
X397124Y312738D01*
X397203Y312698D01*
X397281Y312656D01*
X397357Y312610D01*
X397431Y312561D01*
X397502Y312508D01*
X397571Y312453D01*
X397638Y312394D01*
X397702Y312333D01*
X397763Y312269D01*
X397822Y312202D01*
X397877Y312133D01*
X397930Y312062D01*
X397979Y311988D01*
X398025Y311912D01*
X398067Y311834D01*
X398107Y311755D01*
X398142Y311674D01*
X398174Y311591D01*
X398203Y311507D01*
X398228Y311422D01*
X398249Y311336D01*
X398266Y311249D01*
X398280Y311161D01*
X398289Y311073D01*
X398295Y310985D01*
X398297Y310896D01*
X398295Y310807D01*
X398289Y310719D01*
X398280Y310631D01*
X398266Y310543D01*
X398249Y310456D01*
X398228Y310370D01*
X398203Y310285D01*
X398174Y310201D01*
X398142Y310118D01*
X398107Y310037D01*
X398067Y309958D01*
X398025Y309880D01*
X397979Y309804D01*
X397930Y309730D01*
X397877Y309659D01*
X397822Y309590D01*
X397763Y309523D01*
X397702Y309459D01*
X397638Y309398D01*
X397571Y309339D01*
X397502Y309284D01*
X397431Y309231D01*
X397357Y309182D01*
X397281Y309136D01*
X397203Y309094D01*
X397124Y309054D01*
X397043Y309019D01*
X396960Y308987D01*
X396876Y308958D01*
X396791Y308933D01*
X396705Y308912D01*
X396618Y308895D01*
X396530Y308881D01*
X396442Y308872D01*
X396354Y308866D01*
X396265Y308864D01*
X394233Y308864D01*
X251968Y227330D02*
X251968Y218186D01*
X249428Y227330D02*
X254508Y227330D01*
X258420Y227330D02*
X258420Y218186D01*
X258420Y227330D02*
X260960Y227330D01*
X261060Y227328D01*
X261159Y227322D01*
X261259Y227312D01*
X261357Y227299D01*
X261456Y227281D01*
X261553Y227260D01*
X261649Y227235D01*
X261745Y227206D01*
X261839Y227173D01*
X261932Y227137D01*
X262023Y227097D01*
X262113Y227053D01*
X262201Y227006D01*
X262287Y226956D01*
X262371Y226902D01*
X262453Y226845D01*
X262532Y226785D01*
X262610Y226721D01*
X262684Y226655D01*
X262756Y226586D01*
X262825Y226514D01*
X262891Y226440D01*
X262955Y226362D01*
X263015Y226283D01*
X263072Y226201D01*
X263126Y226117D01*
X263176Y226031D01*
X263223Y225943D01*
X263267Y225853D01*
X263307Y225762D01*
X263343Y225669D01*
X263376Y225575D01*
X263405Y225479D01*
X263430Y225383D01*
X263451Y225286D01*
X263469Y225187D01*
X263482Y225089D01*
X263492Y224989D01*
X263498Y224890D01*
X263500Y224790D01*
X263498Y224690D01*
X263492Y224591D01*
X263482Y224491D01*
X263469Y224393D01*
X263451Y224294D01*
X263430Y224197D01*
X263405Y224101D01*
X263376Y224005D01*
X263343Y223911D01*
X263307Y223818D01*
X263267Y223727D01*
X263223Y223637D01*
X263176Y223549D01*
X263126Y223463D01*
X263072Y223379D01*
X263015Y223297D01*
X262955Y223218D01*
X262891Y223140D01*
X262825Y223066D01*
X262756Y222994D01*
X262684Y222925D01*
X262610Y222859D01*
X262532Y222795D01*
X262453Y222735D01*
X262371Y222678D01*
X262287Y222624D01*
X262201Y222574D01*
X262113Y222527D01*
X262023Y222483D01*
X261932Y222443D01*
X261839Y222407D01*
X261745Y222374D01*
X261649Y222345D01*
X261553Y222320D01*
X261456Y222299D01*
X261357Y222281D01*
X261259Y222268D01*
X261159Y222258D01*
X261060Y222252D01*
X260960Y222250D01*
X258420Y222250D01*
X266700Y217170D02*
X270764Y217170D01*
X274879Y218186D02*
X274879Y227330D01*
X277419Y227330D01*
X277519Y227328D01*
X277618Y227322D01*
X277718Y227312D01*
X277816Y227299D01*
X277915Y227281D01*
X278012Y227260D01*
X278108Y227235D01*
X278204Y227206D01*
X278298Y227173D01*
X278391Y227137D01*
X278482Y227097D01*
X278572Y227053D01*
X278660Y227006D01*
X278746Y226956D01*
X278830Y226902D01*
X278912Y226845D01*
X278991Y226785D01*
X279069Y226721D01*
X279143Y226655D01*
X279215Y226586D01*
X279284Y226514D01*
X279350Y226440D01*
X279414Y226362D01*
X279474Y226283D01*
X279531Y226201D01*
X279585Y226117D01*
X279635Y226031D01*
X279682Y225943D01*
X279726Y225853D01*
X279766Y225762D01*
X279802Y225669D01*
X279835Y225575D01*
X279864Y225479D01*
X279889Y225383D01*
X279910Y225286D01*
X279928Y225187D01*
X279941Y225089D01*
X279951Y224989D01*
X279957Y224890D01*
X279959Y224790D01*
X279957Y224690D01*
X279951Y224591D01*
X279941Y224491D01*
X279928Y224393D01*
X279910Y224294D01*
X279889Y224197D01*
X279864Y224101D01*
X279835Y224005D01*
X279802Y223911D01*
X279766Y223818D01*
X279726Y223727D01*
X279682Y223637D01*
X279635Y223549D01*
X279585Y223463D01*
X279531Y223379D01*
X279474Y223297D01*
X279414Y223218D01*
X279350Y223140D01*
X279284Y223066D01*
X279215Y222994D01*
X279143Y222925D01*
X279069Y222859D01*
X278991Y222795D01*
X278912Y222735D01*
X278830Y222678D01*
X278746Y222624D01*
X278660Y222574D01*
X278572Y222527D01*
X278482Y222483D01*
X278391Y222443D01*
X278298Y222407D01*
X278204Y222374D01*
X278108Y222345D01*
X278012Y222320D01*
X277915Y222299D01*
X277816Y222281D01*
X277718Y222268D01*
X277618Y222258D01*
X277519Y222252D01*
X277419Y222250D01*
X274879Y222250D01*
X283936Y218186D02*
X283936Y227330D01*
X286476Y227330D01*
X286576Y227328D01*
X286675Y227322D01*
X286775Y227312D01*
X286873Y227299D01*
X286972Y227281D01*
X287069Y227260D01*
X287165Y227235D01*
X287261Y227206D01*
X287355Y227173D01*
X287448Y227137D01*
X287539Y227097D01*
X287629Y227053D01*
X287717Y227006D01*
X287803Y226956D01*
X287887Y226902D01*
X287969Y226845D01*
X288048Y226785D01*
X288126Y226721D01*
X288200Y226655D01*
X288272Y226586D01*
X288341Y226514D01*
X288407Y226440D01*
X288471Y226362D01*
X288531Y226283D01*
X288588Y226201D01*
X288642Y226117D01*
X288692Y226031D01*
X288739Y225943D01*
X288783Y225853D01*
X288823Y225762D01*
X288859Y225669D01*
X288892Y225575D01*
X288921Y225479D01*
X288946Y225383D01*
X288967Y225286D01*
X288985Y225187D01*
X288998Y225089D01*
X289008Y224989D01*
X289014Y224890D01*
X289016Y224790D01*
X289014Y224690D01*
X289008Y224591D01*
X288998Y224491D01*
X288985Y224393D01*
X288967Y224294D01*
X288946Y224197D01*
X288921Y224101D01*
X288892Y224005D01*
X288859Y223911D01*
X288823Y223818D01*
X288783Y223727D01*
X288739Y223637D01*
X288692Y223549D01*
X288642Y223463D01*
X288588Y223379D01*
X288531Y223297D01*
X288471Y223218D01*
X288407Y223140D01*
X288341Y223066D01*
X288272Y222994D01*
X288200Y222925D01*
X288126Y222859D01*
X288048Y222795D01*
X287969Y222735D01*
X287887Y222678D01*
X287803Y222624D01*
X287717Y222574D01*
X287629Y222527D01*
X287539Y222483D01*
X287448Y222443D01*
X287355Y222407D01*
X287261Y222374D01*
X287165Y222345D01*
X287069Y222320D01*
X286972Y222299D01*
X286873Y222281D01*
X286775Y222268D01*
X286675Y222258D01*
X286576Y222252D01*
X286476Y222250D01*
X283936Y222250D01*
X286984Y222250D02*
X289016Y218186D01*
X293339Y218186D02*
X297403Y218186D01*
X293339Y218186D02*
X293339Y227330D01*
X297403Y227330D01*
X296387Y223266D02*
X293339Y223266D01*
X303682Y218186D02*
X303771Y218188D01*
X303859Y218194D01*
X303947Y218203D01*
X304035Y218217D01*
X304122Y218234D01*
X304208Y218255D01*
X304293Y218280D01*
X304377Y218309D01*
X304460Y218341D01*
X304541Y218376D01*
X304620Y218416D01*
X304698Y218458D01*
X304774Y218504D01*
X304848Y218553D01*
X304919Y218606D01*
X304988Y218661D01*
X305055Y218720D01*
X305119Y218781D01*
X305180Y218845D01*
X305239Y218912D01*
X305294Y218981D01*
X305347Y219052D01*
X305396Y219126D01*
X305442Y219202D01*
X305484Y219280D01*
X305524Y219359D01*
X305559Y219440D01*
X305591Y219523D01*
X305620Y219607D01*
X305645Y219692D01*
X305666Y219778D01*
X305683Y219865D01*
X305697Y219953D01*
X305706Y220041D01*
X305712Y220129D01*
X305714Y220218D01*
X303682Y218186D02*
X303552Y218188D01*
X303421Y218194D01*
X303291Y218204D01*
X303162Y218218D01*
X303033Y218235D01*
X302904Y218257D01*
X302776Y218283D01*
X302649Y218312D01*
X302523Y218345D01*
X302398Y218382D01*
X302274Y218423D01*
X302152Y218468D01*
X302031Y218516D01*
X301911Y218568D01*
X301793Y218624D01*
X301677Y218683D01*
X301563Y218746D01*
X301450Y218812D01*
X301340Y218881D01*
X301232Y218954D01*
X301126Y219030D01*
X301022Y219109D01*
X300921Y219191D01*
X300823Y219277D01*
X300727Y219365D01*
X300634Y219456D01*
X300888Y225298D02*
X300890Y225387D01*
X300896Y225475D01*
X300905Y225563D01*
X300919Y225651D01*
X300936Y225738D01*
X300957Y225824D01*
X300982Y225909D01*
X301011Y225993D01*
X301043Y226076D01*
X301078Y226157D01*
X301118Y226236D01*
X301160Y226314D01*
X301206Y226390D01*
X301255Y226464D01*
X301308Y226535D01*
X301363Y226604D01*
X301422Y226671D01*
X301483Y226735D01*
X301547Y226796D01*
X301614Y226855D01*
X301683Y226910D01*
X301754Y226963D01*
X301828Y227012D01*
X301904Y227058D01*
X301982Y227100D01*
X302061Y227140D01*
X302142Y227175D01*
X302225Y227207D01*
X302309Y227236D01*
X302394Y227261D01*
X302480Y227282D01*
X302567Y227299D01*
X302655Y227313D01*
X302743Y227322D01*
X302831Y227328D01*
X302920Y227330D01*
X303043Y227328D01*
X303165Y227322D01*
X303287Y227312D01*
X303409Y227298D01*
X303530Y227281D01*
X303651Y227259D01*
X303771Y227234D01*
X303890Y227204D01*
X304008Y227171D01*
X304125Y227134D01*
X304240Y227094D01*
X304355Y227050D01*
X304468Y227002D01*
X304579Y226950D01*
X304688Y226895D01*
X304796Y226836D01*
X304902Y226774D01*
X305005Y226709D01*
X305107Y226640D01*
X305206Y226568D01*
X301904Y223520D02*
X301828Y223567D01*
X301754Y223617D01*
X301683Y223670D01*
X301614Y223727D01*
X301547Y223786D01*
X301483Y223848D01*
X301421Y223913D01*
X301363Y223981D01*
X301308Y224051D01*
X301255Y224123D01*
X301206Y224197D01*
X301160Y224274D01*
X301117Y224352D01*
X301078Y224433D01*
X301042Y224515D01*
X301010Y224598D01*
X300982Y224682D01*
X300957Y224768D01*
X300936Y224855D01*
X300919Y224943D01*
X300905Y225031D01*
X300896Y225120D01*
X300890Y225209D01*
X300888Y225298D01*
X304698Y221996D02*
X304774Y221949D01*
X304848Y221899D01*
X304919Y221846D01*
X304988Y221789D01*
X305055Y221730D01*
X305119Y221668D01*
X305181Y221603D01*
X305239Y221535D01*
X305294Y221465D01*
X305347Y221393D01*
X305396Y221319D01*
X305442Y221242D01*
X305485Y221164D01*
X305524Y221083D01*
X305560Y221001D01*
X305592Y220918D01*
X305620Y220834D01*
X305645Y220748D01*
X305666Y220661D01*
X305683Y220573D01*
X305697Y220485D01*
X305706Y220396D01*
X305712Y220307D01*
X305714Y220218D01*
X304698Y221996D02*
X301904Y223520D01*
X312217Y218186D02*
X312306Y218188D01*
X312394Y218194D01*
X312482Y218203D01*
X312570Y218217D01*
X312657Y218234D01*
X312743Y218255D01*
X312828Y218280D01*
X312912Y218309D01*
X312995Y218341D01*
X313076Y218376D01*
X313155Y218416D01*
X313233Y218458D01*
X313309Y218504D01*
X313383Y218553D01*
X313454Y218606D01*
X313523Y218661D01*
X313590Y218720D01*
X313654Y218781D01*
X313715Y218845D01*
X313774Y218912D01*
X313829Y218981D01*
X313882Y219052D01*
X313931Y219126D01*
X313977Y219202D01*
X314019Y219280D01*
X314059Y219359D01*
X314094Y219440D01*
X314126Y219523D01*
X314155Y219607D01*
X314180Y219692D01*
X314201Y219778D01*
X314218Y219865D01*
X314232Y219953D01*
X314241Y220041D01*
X314247Y220129D01*
X314249Y220218D01*
X312217Y218186D02*
X312087Y218188D01*
X311956Y218194D01*
X311826Y218204D01*
X311697Y218218D01*
X311568Y218235D01*
X311439Y218257D01*
X311311Y218283D01*
X311184Y218312D01*
X311058Y218345D01*
X310933Y218382D01*
X310809Y218423D01*
X310687Y218468D01*
X310566Y218516D01*
X310446Y218568D01*
X310328Y218624D01*
X310212Y218683D01*
X310098Y218746D01*
X309985Y218812D01*
X309875Y218881D01*
X309767Y218954D01*
X309661Y219030D01*
X309557Y219109D01*
X309456Y219191D01*
X309358Y219277D01*
X309262Y219365D01*
X309169Y219456D01*
X309423Y225298D02*
X309425Y225387D01*
X309431Y225475D01*
X309440Y225563D01*
X309454Y225651D01*
X309471Y225738D01*
X309492Y225824D01*
X309517Y225909D01*
X309546Y225993D01*
X309578Y226076D01*
X309613Y226157D01*
X309653Y226236D01*
X309695Y226314D01*
X309741Y226390D01*
X309790Y226464D01*
X309843Y226535D01*
X309898Y226604D01*
X309957Y226671D01*
X310018Y226735D01*
X310082Y226796D01*
X310149Y226855D01*
X310218Y226910D01*
X310289Y226963D01*
X310363Y227012D01*
X310439Y227058D01*
X310517Y227100D01*
X310596Y227140D01*
X310677Y227175D01*
X310760Y227207D01*
X310844Y227236D01*
X310929Y227261D01*
X311015Y227282D01*
X311102Y227299D01*
X311190Y227313D01*
X311278Y227322D01*
X311366Y227328D01*
X311455Y227330D01*
X311578Y227328D01*
X311700Y227322D01*
X311822Y227312D01*
X311944Y227298D01*
X312065Y227281D01*
X312186Y227259D01*
X312306Y227234D01*
X312425Y227204D01*
X312543Y227171D01*
X312660Y227134D01*
X312775Y227094D01*
X312890Y227050D01*
X313003Y227002D01*
X313114Y226950D01*
X313223Y226895D01*
X313331Y226836D01*
X313437Y226774D01*
X313540Y226709D01*
X313642Y226640D01*
X313741Y226568D01*
X310438Y223520D02*
X310362Y223567D01*
X310288Y223617D01*
X310217Y223670D01*
X310148Y223727D01*
X310081Y223786D01*
X310017Y223848D01*
X309955Y223913D01*
X309897Y223981D01*
X309842Y224051D01*
X309789Y224123D01*
X309740Y224197D01*
X309694Y224274D01*
X309651Y224352D01*
X309612Y224433D01*
X309576Y224515D01*
X309544Y224598D01*
X309516Y224682D01*
X309491Y224768D01*
X309470Y224855D01*
X309453Y224943D01*
X309439Y225031D01*
X309430Y225120D01*
X309424Y225209D01*
X309422Y225298D01*
X313233Y221996D02*
X313309Y221949D01*
X313383Y221899D01*
X313454Y221846D01*
X313523Y221789D01*
X313590Y221730D01*
X313654Y221668D01*
X313716Y221603D01*
X313774Y221535D01*
X313829Y221465D01*
X313882Y221393D01*
X313931Y221319D01*
X313977Y221242D01*
X314020Y221164D01*
X314059Y221083D01*
X314095Y221001D01*
X314127Y220918D01*
X314155Y220834D01*
X314180Y220748D01*
X314201Y220661D01*
X314218Y220573D01*
X314232Y220485D01*
X314241Y220396D01*
X314247Y220307D01*
X314249Y220218D01*
X313233Y221996D02*
X310439Y223520D01*
X138557Y267970D02*
X138557Y277114D01*
X136017Y277114D02*
X141097Y277114D01*
X145009Y277114D02*
X145009Y267970D01*
X145009Y277114D02*
X147549Y277114D01*
X147649Y277112D01*
X147748Y277106D01*
X147848Y277096D01*
X147946Y277083D01*
X148045Y277065D01*
X148142Y277044D01*
X148238Y277019D01*
X148334Y276990D01*
X148428Y276957D01*
X148521Y276921D01*
X148612Y276881D01*
X148702Y276837D01*
X148790Y276790D01*
X148876Y276740D01*
X148960Y276686D01*
X149042Y276629D01*
X149121Y276569D01*
X149199Y276505D01*
X149273Y276439D01*
X149345Y276370D01*
X149414Y276298D01*
X149480Y276224D01*
X149544Y276146D01*
X149604Y276067D01*
X149661Y275985D01*
X149715Y275901D01*
X149765Y275815D01*
X149812Y275727D01*
X149856Y275637D01*
X149896Y275546D01*
X149932Y275453D01*
X149965Y275359D01*
X149994Y275263D01*
X150019Y275167D01*
X150040Y275070D01*
X150058Y274971D01*
X150071Y274873D01*
X150081Y274773D01*
X150087Y274674D01*
X150089Y274574D01*
X150087Y274474D01*
X150081Y274375D01*
X150071Y274275D01*
X150058Y274177D01*
X150040Y274078D01*
X150019Y273981D01*
X149994Y273885D01*
X149965Y273789D01*
X149932Y273695D01*
X149896Y273602D01*
X149856Y273511D01*
X149812Y273421D01*
X149765Y273333D01*
X149715Y273247D01*
X149661Y273163D01*
X149604Y273081D01*
X149544Y273002D01*
X149480Y272924D01*
X149414Y272850D01*
X149345Y272778D01*
X149273Y272709D01*
X149199Y272643D01*
X149121Y272579D01*
X149042Y272519D01*
X148960Y272462D01*
X148876Y272408D01*
X148790Y272358D01*
X148702Y272311D01*
X148612Y272267D01*
X148521Y272227D01*
X148428Y272191D01*
X148334Y272158D01*
X148238Y272129D01*
X148142Y272104D01*
X148045Y272083D01*
X147946Y272065D01*
X147848Y272052D01*
X147748Y272042D01*
X147649Y272036D01*
X147549Y272034D01*
X145009Y272034D01*
X153289Y266954D02*
X157353Y266954D01*
X161382Y267970D02*
X161382Y277114D01*
X163922Y277114D01*
X164022Y277112D01*
X164121Y277106D01*
X164221Y277096D01*
X164319Y277083D01*
X164418Y277065D01*
X164515Y277044D01*
X164611Y277019D01*
X164707Y276990D01*
X164801Y276957D01*
X164894Y276921D01*
X164985Y276881D01*
X165075Y276837D01*
X165163Y276790D01*
X165249Y276740D01*
X165333Y276686D01*
X165415Y276629D01*
X165494Y276569D01*
X165572Y276505D01*
X165646Y276439D01*
X165718Y276370D01*
X165787Y276298D01*
X165853Y276224D01*
X165917Y276146D01*
X165977Y276067D01*
X166034Y275985D01*
X166088Y275901D01*
X166138Y275815D01*
X166185Y275727D01*
X166229Y275637D01*
X166269Y275546D01*
X166305Y275453D01*
X166338Y275359D01*
X166367Y275263D01*
X166392Y275167D01*
X166413Y275070D01*
X166431Y274971D01*
X166444Y274873D01*
X166454Y274773D01*
X166460Y274674D01*
X166462Y274574D01*
X166460Y274474D01*
X166454Y274375D01*
X166444Y274275D01*
X166431Y274177D01*
X166413Y274078D01*
X166392Y273981D01*
X166367Y273885D01*
X166338Y273789D01*
X166305Y273695D01*
X166269Y273602D01*
X166229Y273511D01*
X166185Y273421D01*
X166138Y273333D01*
X166088Y273247D01*
X166034Y273163D01*
X165977Y273081D01*
X165917Y273002D01*
X165853Y272924D01*
X165787Y272850D01*
X165718Y272778D01*
X165646Y272709D01*
X165572Y272643D01*
X165494Y272579D01*
X165415Y272519D01*
X165333Y272462D01*
X165249Y272408D01*
X165163Y272358D01*
X165075Y272311D01*
X164985Y272267D01*
X164894Y272227D01*
X164801Y272191D01*
X164707Y272158D01*
X164611Y272129D01*
X164515Y272104D01*
X164418Y272083D01*
X164319Y272065D01*
X164221Y272052D01*
X164121Y272042D01*
X164022Y272036D01*
X163922Y272034D01*
X161382Y272034D01*
X164430Y272034D02*
X166462Y267970D01*
X170764Y267970D02*
X170764Y277114D01*
X170764Y273050D02*
X175844Y273050D01*
X175844Y277114D02*
X175844Y267970D01*
X204089Y180213D02*
X204089Y171069D01*
X201549Y180213D02*
X206629Y180213D01*
X210541Y180213D02*
X210541Y171069D01*
X210541Y180213D02*
X213081Y180213D01*
X213181Y180211D01*
X213280Y180205D01*
X213380Y180195D01*
X213478Y180182D01*
X213577Y180164D01*
X213674Y180143D01*
X213770Y180118D01*
X213866Y180089D01*
X213960Y180056D01*
X214053Y180020D01*
X214144Y179980D01*
X214234Y179936D01*
X214322Y179889D01*
X214408Y179839D01*
X214492Y179785D01*
X214574Y179728D01*
X214653Y179668D01*
X214731Y179604D01*
X214805Y179538D01*
X214877Y179469D01*
X214946Y179397D01*
X215012Y179323D01*
X215076Y179245D01*
X215136Y179166D01*
X215193Y179084D01*
X215247Y179000D01*
X215297Y178914D01*
X215344Y178826D01*
X215388Y178736D01*
X215428Y178645D01*
X215464Y178552D01*
X215497Y178458D01*
X215526Y178362D01*
X215551Y178266D01*
X215572Y178169D01*
X215590Y178070D01*
X215603Y177972D01*
X215613Y177872D01*
X215619Y177773D01*
X215621Y177673D01*
X215619Y177573D01*
X215613Y177474D01*
X215603Y177374D01*
X215590Y177276D01*
X215572Y177177D01*
X215551Y177080D01*
X215526Y176984D01*
X215497Y176888D01*
X215464Y176794D01*
X215428Y176701D01*
X215388Y176610D01*
X215344Y176520D01*
X215297Y176432D01*
X215247Y176346D01*
X215193Y176262D01*
X215136Y176180D01*
X215076Y176101D01*
X215012Y176023D01*
X214946Y175949D01*
X214877Y175877D01*
X214805Y175808D01*
X214731Y175742D01*
X214653Y175678D01*
X214574Y175618D01*
X214492Y175561D01*
X214408Y175507D01*
X214322Y175457D01*
X214234Y175410D01*
X214144Y175366D01*
X214053Y175326D01*
X213960Y175290D01*
X213866Y175257D01*
X213770Y175228D01*
X213674Y175203D01*
X213577Y175182D01*
X213478Y175164D01*
X213380Y175151D01*
X213280Y175141D01*
X213181Y175135D01*
X213081Y175133D01*
X210541Y175133D01*
X218821Y170053D02*
X222885Y170053D01*
X228473Y171069D02*
X228473Y180213D01*
X225933Y180213D02*
X231013Y180213D01*
X234792Y171069D02*
X238856Y171069D01*
X234792Y171069D02*
X234792Y180213D01*
X238856Y180213D01*
X237840Y176149D02*
X234792Y176149D01*
X242798Y180213D02*
X242798Y171069D01*
X245846Y175133D02*
X242798Y180213D01*
X245846Y175133D02*
X248894Y180213D01*
X248894Y171069D01*
X253822Y171069D02*
X253822Y180213D01*
X256362Y180213D01*
X256462Y180211D01*
X256561Y180205D01*
X256661Y180195D01*
X256759Y180182D01*
X256858Y180164D01*
X256955Y180143D01*
X257051Y180118D01*
X257147Y180089D01*
X257241Y180056D01*
X257334Y180020D01*
X257425Y179980D01*
X257515Y179936D01*
X257603Y179889D01*
X257689Y179839D01*
X257773Y179785D01*
X257855Y179728D01*
X257934Y179668D01*
X258012Y179604D01*
X258086Y179538D01*
X258158Y179469D01*
X258227Y179397D01*
X258293Y179323D01*
X258357Y179245D01*
X258417Y179166D01*
X258474Y179084D01*
X258528Y179000D01*
X258578Y178914D01*
X258625Y178826D01*
X258669Y178736D01*
X258709Y178645D01*
X258745Y178552D01*
X258778Y178458D01*
X258807Y178362D01*
X258832Y178266D01*
X258853Y178169D01*
X258871Y178070D01*
X258884Y177972D01*
X258894Y177872D01*
X258900Y177773D01*
X258902Y177673D01*
X258900Y177573D01*
X258894Y177474D01*
X258884Y177374D01*
X258871Y177276D01*
X258853Y177177D01*
X258832Y177080D01*
X258807Y176984D01*
X258778Y176888D01*
X258745Y176794D01*
X258709Y176701D01*
X258669Y176610D01*
X258625Y176520D01*
X258578Y176432D01*
X258528Y176346D01*
X258474Y176262D01*
X258417Y176180D01*
X258357Y176101D01*
X258293Y176023D01*
X258227Y175949D01*
X258158Y175877D01*
X258086Y175808D01*
X258012Y175742D01*
X257934Y175678D01*
X257855Y175618D01*
X257773Y175561D01*
X257689Y175507D01*
X257603Y175457D01*
X257515Y175410D01*
X257425Y175366D01*
X257334Y175326D01*
X257241Y175290D01*
X257147Y175257D01*
X257051Y175228D01*
X256955Y175203D01*
X256858Y175182D01*
X256759Y175164D01*
X256661Y175151D01*
X256561Y175141D01*
X256462Y175135D01*
X256362Y175133D01*
X253822Y175133D01*
X205105Y297942D02*
X205105Y307086D01*
X202565Y307086D02*
X207645Y307086D01*
X211557Y307086D02*
X211557Y297942D01*
X211557Y307086D02*
X214097Y307086D01*
X214197Y307084D01*
X214296Y307078D01*
X214396Y307068D01*
X214494Y307055D01*
X214593Y307037D01*
X214690Y307016D01*
X214786Y306991D01*
X214882Y306962D01*
X214976Y306929D01*
X215069Y306893D01*
X215160Y306853D01*
X215250Y306809D01*
X215338Y306762D01*
X215424Y306712D01*
X215508Y306658D01*
X215590Y306601D01*
X215669Y306541D01*
X215747Y306477D01*
X215821Y306411D01*
X215893Y306342D01*
X215962Y306270D01*
X216028Y306196D01*
X216092Y306118D01*
X216152Y306039D01*
X216209Y305957D01*
X216263Y305873D01*
X216313Y305787D01*
X216360Y305699D01*
X216404Y305609D01*
X216444Y305518D01*
X216480Y305425D01*
X216513Y305331D01*
X216542Y305235D01*
X216567Y305139D01*
X216588Y305042D01*
X216606Y304943D01*
X216619Y304845D01*
X216629Y304745D01*
X216635Y304646D01*
X216637Y304546D01*
X216635Y304446D01*
X216629Y304347D01*
X216619Y304247D01*
X216606Y304149D01*
X216588Y304050D01*
X216567Y303953D01*
X216542Y303857D01*
X216513Y303761D01*
X216480Y303667D01*
X216444Y303574D01*
X216404Y303483D01*
X216360Y303393D01*
X216313Y303305D01*
X216263Y303219D01*
X216209Y303135D01*
X216152Y303053D01*
X216092Y302974D01*
X216028Y302896D01*
X215962Y302822D01*
X215893Y302750D01*
X215821Y302681D01*
X215747Y302615D01*
X215669Y302551D01*
X215590Y302491D01*
X215508Y302434D01*
X215424Y302380D01*
X215338Y302330D01*
X215250Y302283D01*
X215160Y302239D01*
X215069Y302199D01*
X214976Y302163D01*
X214882Y302130D01*
X214786Y302101D01*
X214690Y302076D01*
X214593Y302055D01*
X214494Y302037D01*
X214396Y302024D01*
X214296Y302014D01*
X214197Y302008D01*
X214097Y302006D01*
X211557Y302006D01*
X219837Y296926D02*
X223901Y296926D01*
X229632Y299974D02*
X229632Y307086D01*
X229632Y299974D02*
X229630Y299885D01*
X229624Y299797D01*
X229615Y299709D01*
X229601Y299621D01*
X229584Y299534D01*
X229563Y299448D01*
X229538Y299363D01*
X229509Y299279D01*
X229477Y299196D01*
X229442Y299115D01*
X229402Y299036D01*
X229360Y298958D01*
X229314Y298882D01*
X229265Y298808D01*
X229212Y298737D01*
X229157Y298668D01*
X229098Y298601D01*
X229037Y298537D01*
X228973Y298476D01*
X228906Y298417D01*
X228837Y298362D01*
X228766Y298309D01*
X228692Y298260D01*
X228616Y298214D01*
X228538Y298172D01*
X228459Y298132D01*
X228378Y298097D01*
X228295Y298065D01*
X228211Y298036D01*
X228126Y298011D01*
X228040Y297990D01*
X227953Y297973D01*
X227865Y297959D01*
X227777Y297950D01*
X227689Y297944D01*
X227600Y297942D01*
X226584Y297942D01*
X233959Y305054D02*
X236499Y307086D01*
X236499Y297942D01*
X233959Y297942D02*
X239039Y297942D01*
X284988Y298831D02*
X284988Y307975D01*
X282448Y307975D02*
X287528Y307975D01*
X291440Y307975D02*
X291440Y298831D01*
X291440Y307975D02*
X293980Y307975D01*
X294080Y307973D01*
X294179Y307967D01*
X294279Y307957D01*
X294377Y307944D01*
X294476Y307926D01*
X294573Y307905D01*
X294669Y307880D01*
X294765Y307851D01*
X294859Y307818D01*
X294952Y307782D01*
X295043Y307742D01*
X295133Y307698D01*
X295221Y307651D01*
X295307Y307601D01*
X295391Y307547D01*
X295473Y307490D01*
X295552Y307430D01*
X295630Y307366D01*
X295704Y307300D01*
X295776Y307231D01*
X295845Y307159D01*
X295911Y307085D01*
X295975Y307007D01*
X296035Y306928D01*
X296092Y306846D01*
X296146Y306762D01*
X296196Y306676D01*
X296243Y306588D01*
X296287Y306498D01*
X296327Y306407D01*
X296363Y306314D01*
X296396Y306220D01*
X296425Y306124D01*
X296450Y306028D01*
X296471Y305931D01*
X296489Y305832D01*
X296502Y305734D01*
X296512Y305634D01*
X296518Y305535D01*
X296520Y305435D01*
X296518Y305335D01*
X296512Y305236D01*
X296502Y305136D01*
X296489Y305038D01*
X296471Y304939D01*
X296450Y304842D01*
X296425Y304746D01*
X296396Y304650D01*
X296363Y304556D01*
X296327Y304463D01*
X296287Y304372D01*
X296243Y304282D01*
X296196Y304194D01*
X296146Y304108D01*
X296092Y304024D01*
X296035Y303942D01*
X295975Y303863D01*
X295911Y303785D01*
X295845Y303711D01*
X295776Y303639D01*
X295704Y303570D01*
X295630Y303504D01*
X295552Y303440D01*
X295473Y303380D01*
X295391Y303323D01*
X295307Y303269D01*
X295221Y303219D01*
X295133Y303172D01*
X295043Y303128D01*
X294952Y303088D01*
X294859Y303052D01*
X294765Y303019D01*
X294669Y302990D01*
X294573Y302965D01*
X294476Y302944D01*
X294377Y302926D01*
X294279Y302913D01*
X294179Y302903D01*
X294080Y302897D01*
X293980Y302895D01*
X291440Y302895D01*
X299720Y297815D02*
X303784Y297815D01*
X309515Y300863D02*
X309515Y307975D01*
X309515Y300863D02*
X309513Y300774D01*
X309507Y300686D01*
X309498Y300598D01*
X309484Y300510D01*
X309467Y300423D01*
X309446Y300337D01*
X309421Y300252D01*
X309392Y300168D01*
X309360Y300085D01*
X309325Y300004D01*
X309285Y299925D01*
X309243Y299847D01*
X309197Y299771D01*
X309148Y299697D01*
X309095Y299626D01*
X309040Y299557D01*
X308981Y299490D01*
X308920Y299426D01*
X308856Y299365D01*
X308789Y299306D01*
X308720Y299251D01*
X308649Y299198D01*
X308575Y299149D01*
X308499Y299103D01*
X308421Y299061D01*
X308342Y299021D01*
X308261Y298986D01*
X308178Y298954D01*
X308094Y298925D01*
X308009Y298900D01*
X307923Y298879D01*
X307836Y298862D01*
X307748Y298848D01*
X307660Y298839D01*
X307572Y298833D01*
X307483Y298831D01*
X306467Y298831D01*
X316636Y307975D02*
X316730Y307973D01*
X316825Y307967D01*
X316919Y307957D01*
X317012Y307944D01*
X317105Y307926D01*
X317197Y307905D01*
X317288Y307880D01*
X317378Y307851D01*
X317467Y307819D01*
X317554Y307782D01*
X317640Y307743D01*
X317724Y307699D01*
X317806Y307653D01*
X317886Y307603D01*
X317964Y307549D01*
X318040Y307493D01*
X318113Y307433D01*
X318184Y307371D01*
X318252Y307305D01*
X318318Y307237D01*
X318380Y307166D01*
X318440Y307093D01*
X318496Y307017D01*
X318550Y306939D01*
X318600Y306859D01*
X318646Y306777D01*
X318690Y306693D01*
X318729Y306607D01*
X318766Y306520D01*
X318798Y306431D01*
X318827Y306341D01*
X318852Y306250D01*
X318873Y306158D01*
X318891Y306065D01*
X318904Y305972D01*
X318914Y305878D01*
X318920Y305783D01*
X318922Y305689D01*
X316636Y307975D02*
X316530Y307973D01*
X316425Y307967D01*
X316320Y307958D01*
X316215Y307945D01*
X316111Y307928D01*
X316008Y307907D01*
X315905Y307883D01*
X315803Y307854D01*
X315703Y307823D01*
X315603Y307787D01*
X315505Y307749D01*
X315409Y307706D01*
X315313Y307660D01*
X315220Y307611D01*
X315129Y307559D01*
X315039Y307503D01*
X314951Y307444D01*
X314866Y307382D01*
X314783Y307317D01*
X314702Y307249D01*
X314624Y307178D01*
X314549Y307104D01*
X314476Y307028D01*
X314406Y306949D01*
X314339Y306868D01*
X314274Y306784D01*
X314213Y306698D01*
X314155Y306610D01*
X314100Y306520D01*
X314049Y306428D01*
X314000Y306334D01*
X313955Y306238D01*
X313914Y306141D01*
X313876Y306043D01*
X313842Y305943D01*
X318160Y303911D02*
X318227Y303978D01*
X318292Y304047D01*
X318354Y304119D01*
X318413Y304192D01*
X318469Y304269D01*
X318523Y304347D01*
X318573Y304427D01*
X318620Y304509D01*
X318664Y304593D01*
X318704Y304679D01*
X318742Y304766D01*
X318776Y304854D01*
X318806Y304944D01*
X318833Y305034D01*
X318857Y305126D01*
X318877Y305219D01*
X318893Y305312D01*
X318906Y305406D01*
X318915Y305500D01*
X318920Y305594D01*
X318922Y305689D01*
X318160Y303911D02*
X313842Y298831D01*
X318922Y298831D01*
M02*
