G04 EAGLE Gerber RS-274X export*
G75*
%MOMM*%
%FSLAX34Y34*%
%LPD*%
%INSoldermask Top*%
%IPPOS*%
%AMOC8*
5,1,8,0,0,1.08239X$1,22.5*%
G01*
%ADD10C,6.959600*%
%ADD11R,2.235200X1.346200*%
%ADD12R,1.103200X0.903200*%
%ADD13R,1.453200X1.003200*%
%ADD14R,1.703200X5.303200*%
%ADD15R,1.423200X1.113200*%
%ADD16R,1.703200X1.503200*%
%ADD17R,1.203200X1.303200*%
%ADD18R,1.882800X1.882800*%
%ADD19P,2.037924X8X202.500000*%
%ADD20R,0.901759X0.399416*%
%ADD21R,0.903759X0.399888*%
%ADD22R,0.901841X0.400500*%
%ADD23R,0.902919X0.401684*%
%ADD24R,0.899303X0.399487*%
%ADD25R,0.897913X0.399859*%
%ADD26R,0.898566X0.400859*%
%ADD27R,0.897909X0.402650*%
%ADD28R,0.403200X1.203200*%
%ADD29C,1.473200*%
%ADD30R,1.812800X1.812800*%
%ADD31P,1.962157X8X202.500000*%
%ADD32P,4.999776X8X202.500000*%
%ADD33C,1.162800*%
%ADD34R,1.162800X1.162800*%

G36*
X88038Y178721D02*
X88038Y178721D01*
X88038Y178722D01*
X88038Y198722D01*
X88035Y198726D01*
X88034Y198726D01*
X78534Y198726D01*
X78532Y198725D01*
X78531Y198725D01*
X75031Y195225D01*
X75031Y195223D01*
X75030Y195222D01*
X75030Y178722D01*
X75033Y178718D01*
X75034Y178718D01*
X88034Y178718D01*
X88038Y178721D01*
G37*
D10*
X67564Y67564D03*
X575564Y67564D03*
X67564Y321564D03*
X575564Y321564D03*
D11*
X330190Y270256D03*
X330190Y244856D03*
X330190Y219456D03*
X330190Y194056D03*
X444510Y194056D03*
X444510Y219456D03*
X444510Y244856D03*
X444510Y270256D03*
D12*
X43434Y183238D03*
X43434Y196238D03*
X30734Y196238D03*
X30734Y183238D03*
D13*
X596140Y190741D03*
X596140Y236741D03*
D14*
X513640Y213741D03*
D15*
X497205Y134272D03*
X497205Y166972D03*
D16*
X487299Y231877D03*
X487299Y212877D03*
D17*
X520319Y149234D03*
X520319Y166234D03*
X119634Y181238D03*
X119634Y198238D03*
D18*
X156972Y352933D03*
D19*
X182372Y352933D03*
X207772Y352933D03*
D18*
X237236Y352933D03*
D19*
X262636Y352933D03*
X288036Y352933D03*
D18*
X316484Y352933D03*
D19*
X341884Y352933D03*
X367284Y352933D03*
D20*
X69525Y196225D03*
D21*
X69515Y191223D03*
D22*
X69525Y186220D03*
D23*
X69519Y181214D03*
D24*
X93537Y196225D03*
D25*
X93544Y191223D03*
D26*
X93541Y186218D03*
D27*
X93544Y181209D03*
D28*
X81534Y188722D03*
D29*
X499237Y279908D03*
D30*
X278264Y140970D03*
D31*
X301164Y140970D03*
X324064Y140970D03*
X346964Y140970D03*
X369864Y140970D03*
X266864Y115570D03*
X289764Y115570D03*
X312664Y115570D03*
X335564Y115570D03*
X358464Y115570D03*
X278264Y90170D03*
X301164Y90170D03*
X324064Y90170D03*
X346964Y90170D03*
X369864Y90170D03*
D32*
X446564Y115570D03*
X196564Y115570D03*
D29*
X600583Y157988D03*
X148717Y102997D03*
X367665Y293116D03*
X283972Y209931D03*
X141859Y257302D03*
X193421Y178562D03*
X208407Y287274D03*
X288290Y288163D03*
D33*
X172720Y199263D03*
X173609Y179959D03*
D34*
X201295Y238506D03*
X201295Y228727D03*
M02*
